<svg width="486" height="275" viewBox="0 0 486 275" fill="none" preserveAspectRatio="xMidYMid slice" xmlns="http://www.w3.org/2000/svg">
<rect width="486" height="275" fill="url(#paint0_linear_6188_1536)"/>
<path fill-rule="evenodd" clip-rule="evenodd" d="M195 140.658C194.947 153.427 199.951 165.699 208.92 174.788C213.36 179.305 218.654 182.892 224.494 185.341C230.335 187.79 236.604 189.051 242.937 189.051C249.27 189.051 255.54 187.79 261.38 185.341C267.221 182.892 272.515 179.305 276.954 174.788C283.716 167.947 288.279 159.241 290.057 149.788C291.835 140.335 290.747 130.566 286.933 121.736C290.366 121.748 293.732 120.778 296.633 118.941C299.533 117.104 301.849 114.477 303.306 111.368C304.763 108.259 305.301 104.798 304.857 101.394C304.413 97.989 303.005 94.7822 300.8 92.1511C298.594 89.5199 295.682 87.574 292.407 86.5425C289.132 85.511 285.631 85.437 282.315 86.3292C279 87.2213 276.008 89.0425 273.693 91.5781C271.378 94.1137 269.836 97.2581 269.249 100.641C262.021 95.9265 253.657 93.2478 245.035 92.8865C236.413 92.5252 227.854 94.4947 220.257 98.5878C212.661 102.681 206.308 108.746 201.868 116.145C197.427 123.544 195.064 132.003 195.026 140.632L195 140.658ZM282.209 99.9082L285.215 106.729L291.379 91.1672L294.815 93.3146L287.691 112.565L282.638 113.045L278.394 103.774L282.209 99.9082ZM242.925 93.744C252.278 93.7701 261.395 96.6911 269.021 102.106V103.774C269.022 108.216 270.666 112.501 273.637 115.803C276.608 119.106 280.696 121.192 285.114 121.66C288.879 130.242 289.981 139.756 288.279 148.971C286.576 158.186 282.147 166.678 275.565 173.348C271.309 177.657 266.24 181.078 260.653 183.413C255.065 185.748 249.069 186.95 243.013 186.95C236.957 186.95 230.961 185.748 225.373 183.413C219.786 181.078 214.717 177.657 210.461 173.348C201.854 164.623 197.009 152.872 196.966 140.616C196.924 128.359 201.687 116.575 210.234 107.79C214.469 103.384 219.543 99.8716 225.158 97.4591C230.773 95.0467 236.814 93.7834 242.925 93.744Z" fill="black"/>
<path d="M243 137.289V157.5M243 137.289L234.579 145.71M243 137.289L251.421 145.71" stroke="black" stroke-width="4.04211" stroke-linecap="round" stroke-linejoin="round"/>
<path d="M259.842 127.184L254.79 132.237" stroke="black" stroke-width="3.36842" stroke-linecap="round" stroke-linejoin="round"/>
<path d="M226.158 127.184L231.21 132.237" stroke="black" stroke-width="3.36842" stroke-linecap="round" stroke-linejoin="round"/>
<path d="M243 123.816V130.553" stroke="black" stroke-width="3.36842" stroke-linecap="round" stroke-linejoin="round"/>
<defs>
<linearGradient id="paint0_linear_6188_1536" x1="243" y1="0" x2="243" y2="275" gradientUnits="userSpaceOnUse">
<stop stop-color="#A4FF79"/>
<stop offset="1" stop-color="white" stop-opacity="0"/>
</linearGradient>
</defs>
</svg>
