<svg width="12" height="12" viewBox="0 0 12 12" fill="none" xmlns="http://www.w3.org/2000/svg">
<path fill-rule="evenodd" clip-rule="evenodd" d="M7.37891 2.25H2.0625C1.75184 2.25 1.5 2.50184 1.5 2.8125C1.5 3.12316 1.75184 3.375 2.0625 3.375H7.37891C7.2232 3.23757 7.125 3.0365 7.125 2.8125C7.125 2.5885 7.2232 2.38743 7.37891 2.25ZM8.37109 3.375C8.5268 3.23757 8.625 3.0365 8.625 2.8125C8.625 2.5885 8.5268 2.38743 8.37109 2.25H9.9375C10.2482 2.25 10.5 2.50184 10.5 2.8125C10.5 3.12316 10.2482 3.375 9.9375 3.375H8.37109Z" fill="currentColor"/>
<path fill-rule="evenodd" clip-rule="evenodd" d="M2.0625 5.25C1.75184 5.25 1.5 5.50184 1.5 5.8125C1.5 6.12316 1.75184 6.375 2.0625 6.375H3.47534C3.41152 6.26469 3.375 6.13661 3.375 6C3.375 5.58579 3.71079 5.25 4.125 5.25C4.53921 5.25 4.875 5.58579 4.875 6C4.875 6.13661 4.83848 6.26469 4.77466 6.375H9.9375C10.2482 6.375 10.5 6.12316 10.5 5.8125C10.5 5.50184 10.2482 5.25 9.9375 5.25H4.125H2.0625Z" fill="currentColor"/>
<path fill-rule="evenodd" clip-rule="evenodd" d="M7.37891 8.625H2.0625C1.75184 8.625 1.5 8.87684 1.5 9.1875C1.5 9.49816 1.75184 9.75 2.0625 9.75H7.37891C7.2232 9.61257 7.125 9.4115 7.125 9.1875C7.125 8.9635 7.2232 8.76243 7.37891 8.625ZM8.37109 9.75C8.5268 9.61257 8.625 9.4115 8.625 9.1875C8.625 8.9635 8.5268 8.76243 8.37109 8.625H9.9375C10.2482 8.625 10.5 8.87684 10.5 9.1875C10.5 9.49816 10.2482 9.75 9.9375 9.75H8.37109Z" fill="currentColor"/>
<path fill-rule="evenodd" clip-rule="evenodd" d="M7.875 2.0625C7.46079 2.0625 7.125 2.39829 7.125 2.8125C7.125 3.22671 7.46079 3.5625 7.875 3.5625C8.28921 3.5625 8.625 3.22671 8.625 2.8125C8.625 2.39829 8.28921 2.0625 7.875 2.0625ZM6.375 2.8125C6.375 1.98407 7.04657 1.3125 7.875 1.3125C8.70343 1.3125 9.375 1.98407 9.375 2.8125C9.375 3.64093 8.70343 4.3125 7.875 4.3125C7.04657 4.3125 6.375 3.64093 6.375 2.8125Z" fill="currentColor"/>
<path fill-rule="evenodd" clip-rule="evenodd" d="M7.875 7.6875C7.04657 7.6875 6.375 8.35907 6.375 9.1875C6.375 10.0159 7.04657 10.6875 7.875 10.6875C8.70343 10.6875 9.375 10.0159 9.375 9.1875C9.375 8.35907 8.70343 7.6875 7.875 7.6875ZM7.125 9.1875C7.125 8.77329 7.46079 8.4375 7.875 8.4375C8.28921 8.4375 8.625 8.77329 8.625 9.1875C8.625 9.60171 8.28921 9.9375 7.875 9.9375C7.46079 9.9375 7.125 9.60171 7.125 9.1875Z" fill="currentColor"/>
<path fill-rule="evenodd" clip-rule="evenodd" d="M4.125 5.25C3.71079 5.25 3.375 5.58579 3.375 6C3.375 6.41421 3.71079 6.75 4.125 6.75C4.53921 6.75 4.875 6.41421 4.875 6C4.875 5.58579 4.53921 5.25 4.125 5.25ZM2.625 6C2.625 5.17157 3.29657 4.5 4.125 4.5C4.95343 4.5 5.625 5.17157 5.625 6C5.625 6.82843 4.95343 7.5 4.125 7.5C3.29657 7.5 2.625 6.82843 2.625 6Z" fill="currentColor"/>
</svg>
