<svg width="16" height="16" viewBox="0 0 16 16" fill="none" xmlns="http://www.w3.org/2000/svg">
    <path fill-rule="evenodd" clip-rule="evenodd" d="M2 3.75C2 3.33579 2.33579 3 2.75 3L13.25 3C13.6642 3 14 3.33579 14 3.75C14 4.16421 13.6642 4.5 13.25 4.5L2.75 4.5C2.33579 4.5 2 4.16421 2 3.75Z" fill="black"/>
    <path fill-rule="evenodd" clip-rule="evenodd" d="M2 8C2 7.58579 2.33579 7.25 2.75 7.25L13.25 7.25C13.6642 7.25 14 7.58579 14 8C14 8.41421 13.6642 8.75 13.25 8.75L2.75 8.75C2.33579 8.75 2 8.41421 2 8Z" fill="black"/>
    <path fill-rule="evenodd" clip-rule="evenodd" d="M2 12.25C2 11.8358 2.33579 11.5 2.75 11.5L13.25 11.5C13.6642 11.5 14 11.8358 14 12.25C14 12.6642 13.6642 13 13.25 13L2.75 13C2.33579 13 2 12.6642 2 12.25Z" fill="black"/>
    <circle cx="10.5" cy="3.75" r="1.5" fill="white" stroke="#0B0C0F"/>
    <circle cx="10.5" cy="12.5" r="1.5" fill="white" stroke="#0B0C0F"/>
    <circle cx="5.5" cy="8" r="1.5" fill="white" stroke="#0B0C0F"/>
</svg>
