<svg width="48" height="48" viewBox="0 0 48 48" fill="none" xmlns="http://www.w3.org/2000/svg">
<g id="Facebook" clip-path="url(#clip0_8295_3193)">
<path id="Vector" d="M48.0001 24.1461C48.0001 10.8081 37.2541 -0.00390625 24.0001 -0.00390625C10.7401 -0.00090625 -0.00585938 10.8081 -0.00585938 24.1491C-0.00585938 36.2001 8.77214 46.1901 20.2441 48.0021V31.1271H14.1541V24.1491H20.2501V18.8241C20.2501 12.7731 23.8351 9.43109 29.3161 9.43109C31.9441 9.43109 34.6891 9.90209 34.6891 9.90209V15.8421H31.6621C28.6831 15.8421 27.7531 17.7051 27.7531 19.6161V24.1461H34.4071L33.3451 31.1241H27.7501V47.9991C39.2221 46.1871 48.0001 36.1971 48.0001 24.1461Z" fill="url(#paint0_linear_8295_3193)"/>
</g>
<defs>
<linearGradient id="paint0_linear_8295_3193" x1="23.9971" y1="-0.00390625" x2="23.9971" y2="48.0021" gradientUnits="userSpaceOnUse">
<stop stop-color="#17A9FD"/>
<stop offset="1" stop-color="#0165E1"/>
</linearGradient>
<clipPath id="clip0_8295_3193">
<rect width="48" height="48" fill="white"/>
</clipPath>
</defs>
</svg>
