<svg width="48" height="48" viewBox="0 0 48 48" fill="none" xmlns="http://www.w3.org/2000/svg">
<g id="Twitter">
<path id="Vector" d="M47.8335 9.23724C46.0804 9.99349 44.1726 10.5378 42.2075 10.7497C44.2356 9.54089 45.7768 7.63307 46.5044 5.36432C44.6309 6.48151 42.5111 7.30078 40.3054 7.72474C38.5179 5.81693 35.9799 4.63672 33.1669 4.63672C27.7528 4.63672 23.3986 9.02526 23.3986 14.4107C23.3986 15.1669 23.4903 15.9232 23.6393 16.6508C15.5325 16.2268 8.30228 12.3539 3.49551 6.42422C2.64759 7.87943 2.16634 9.54088 2.16634 11.357C2.16634 14.7487 3.89082 17.7393 6.52051 19.4982C4.91634 19.4352 3.40384 18.9826 2.10332 18.2549V18.3753C2.10332 23.1247 5.46061 27.0607 9.93509 27.9659C9.11582 28.1779 8.23926 28.2982 7.3627 28.2982C6.72676 28.2982 6.12519 28.2352 5.5179 28.1492C6.7554 32.0221 10.359 34.8352 14.6502 34.9268C11.2929 37.5565 7.0877 39.1034 2.52155 39.1034C1.70228 39.1034 0.946029 39.0747 0.161133 38.9831C4.49238 41.7617 9.63144 43.3659 15.1658 43.3659C33.1325 43.3659 42.9637 28.4815 42.9637 15.5622C42.9637 15.1383 42.9637 14.7143 42.9351 14.2904C44.8372 12.8982 46.5044 11.1737 47.8335 9.23724Z" fill="#1DA1F2"/>
</g>
</svg>
