<svg width="32" height="32" viewBox="0 0 32 32" fill="none" xmlns="http://www.w3.org/2000/svg">
<path d="M0 15.7398C0 22.6143 4.47762 28.4592 10.7183 30.6049C11.5591 30.8151 11.431 30.2241 11.431 29.8249V27.0974C6.5783 27.6569 6.38479 24.4974 6.05647 23.9708C5.39717 22.8638 3.84368 22.5814 4.30679 22.0548C5.41185 21.4954 6.53827 22.1967 7.84085 24.0942C8.78442 25.4691 10.6248 25.2367 11.5604 25.0069C11.7612 24.1927 12.1914 23.4507 12.8016 22.8664C7.77545 21.9813 5.67878 18.9623 5.67878 15.3708C5.67878 13.6295 6.26334 12.0287 7.4071 10.7366C6.6784 8.60658 7.47516 6.7852 7.5806 6.51468C9.65992 6.33084 11.8167 7.97888 11.9848 8.10757C13.1659 7.79372 14.5126 7.62826 16.0194 7.62826C17.5341 7.62826 18.8888 7.79897 20.0766 8.11676C20.477 7.81473 22.4815 6.40043 24.4141 6.57377C24.5168 6.84429 25.2949 8.62365 24.6103 10.7234C25.77 12.0182 26.3599 13.6334 26.3599 15.38C26.3599 18.9767 24.2512 21.9984 19.2104 22.8729C19.6421 23.2914 19.9848 23.7902 20.2186 24.3403C20.4523 24.8904 20.5723 25.4808 20.5717 26.0771V30.0363C20.5997 30.3528 20.5717 30.6667 21.1096 30.6667C27.441 28.5669 32 22.6786 32 15.7424C32 7.04389 24.8345 1.65138e-06 16.002 1.65138e-06C7.15886 -0.00393788 0 7.04127 0 15.7398Z" fill="#1D2129"/>
</svg>
