<svg width="32" height="32" viewBox="0 0 32 32" fill="none" xmlns="http://www.w3.org/2000/svg">
<g clip-path="url(#clip0_9503_1347)">
<path d="M6.69074 16C6.69074 14.984 6.86408 14.0093 7.17074 13.096L1.78674 9.06934C0.70501 11.2193 0.143265 13.5932 0.146745 16C0.146745 18.4907 0.736078 20.84 1.78408 22.9253L7.16541 18.892C6.85163 17.9601 6.69132 16.9833 6.69074 16Z" fill="#FBBC05"/>
<path d="M16.1466 6.75596C18.4 6.75596 20.436 7.53729 22.036 8.81729L26.6906 4.26662C23.8546 1.84929 20.2186 0.355957 16.1466 0.355957C9.82396 0.355957 4.38929 3.89596 1.78662 9.06929L7.17329 13.096C8.41329 9.40796 11.9493 6.75596 16.1466 6.75596Z" fill="#EA4335"/>
<path d="M16.1466 25.2438C11.948 25.2438 8.41195 22.5918 7.17062 18.9038L1.78662 22.9305C4.38795 28.1038 9.82262 31.6438 16.1466 31.6438C20.048 31.6438 23.7733 30.2878 26.5706 27.7451L21.4586 23.8758C20.0173 24.7651 18.2013 25.2438 16.1453 25.2438" fill="#34A853"/>
<path d="M31.4186 16.0002C31.4186 15.0762 31.2719 14.0803 31.0546 13.1562H16.1453V19.2003H24.7266C24.2986 21.2616 23.1306 22.8456 21.4599 23.8762L26.5706 27.7456C29.5079 25.0762 31.4186 21.1002 31.4186 16.0002Z" fill="#4285F4"/>
</g>
<defs>
<clipPath id="clip0_9503_1347">
<rect width="32" height="32" fill="white"/>
</clipPath>
</defs>
</svg>
