<svg width="16" height="16" viewBox="0 0 16 16" fill="none" xmlns="http://www.w3.org/2000/svg">
<path d="M3.5 8C3.5 5.51472 5.51472 3.5 8 3.5C10.4853 3.5 12.5 5.51472 12.5 8C12.5 10.4853 10.4853 12.5 8 12.5C5.51472 12.5 3.5 10.4853 3.5 8Z" stroke="#1D2129"/>
<circle cx="8" cy="7" r="1.5" stroke="#1D2129"/>
<mask id="path-3-inside-1_18125_2482" fill="white">
<path d="M11.8189 10.81C11.561 9.98228 11.0411 9.26076 10.3376 8.75411C9.63403 8.24746 8.78494 7.9831 7.91814 8.00084C7.05135 8.01858 6.21378 8.31746 5.53158 8.85248C4.84937 9.3875 4.35946 10.1297 4.13562 10.9673L5.12427 11.2315C5.29085 10.6082 5.65542 10.0559 6.16309 9.65774C6.67077 9.2596 7.29405 9.03718 7.93909 9.02398C8.58412 9.01077 9.21599 9.2075 9.73952 9.58453C10.2631 9.96156 10.6499 10.4985 10.8419 11.1144L11.8189 10.81Z"/>
</mask>
<path d="M11.8189 10.81C11.561 9.98228 11.0411 9.26076 10.3376 8.75411C9.63403 8.24746 8.78494 7.9831 7.91814 8.00084C7.05135 8.01858 6.21378 8.31746 5.53158 8.85248C4.84937 9.3875 4.35946 10.1297 4.13562 10.9673L5.12427 11.2315C5.29085 10.6082 5.65542 10.0559 6.16309 9.65774C6.67077 9.2596 7.29405 9.03718 7.93909 9.02398C8.58412 9.01077 9.21599 9.2075 9.73952 9.58453C10.2631 9.96156 10.6499 10.4985 10.8419 11.1144L11.8189 10.81Z" stroke="#1D2129" stroke-width="2" mask="url(#path-3-inside-1_18125_2482)"/>
</svg>
