<svg width="16" height="16" viewBox="0 0 16 16" fill="none" xmlns="http://www.w3.org/2000/svg">
<path d="M3.5 5C3.5 4.72386 3.72386 4.5 4 4.5H12C12.2761 4.5 12.5 4.72386 12.5 5V12C12.5 12.2761 12.2761 12.5 12 12.5H4C3.72386 12.5 3.5 12.2761 3.5 12V5Z" stroke="#1D2129"/>
<path fill-rule="evenodd" clip-rule="evenodd" d="M5 3.5C5 3.22386 5.22386 3 5.5 3C5.77614 3 6 3.22386 6 3.5V5.5C6 5.77614 5.77614 6 5.5 6C5.22386 6 5 5.77614 5 5.5V3.5ZM10 3.5C10 3.22386 10.2239 3 10.5 3C10.7761 3 11 3.22386 11 3.5V5.5C11 5.77614 10.7761 6 10.5 6C10.2239 6 10 5.77614 10 5.5V3.5ZM3 8H13V7H3V8Z" fill="#1D2129"/>
</svg>
