<svg width="16" height="16" viewBox="0 0 16 16" fill="none" xmlns="http://www.w3.org/2000/svg">
<path fill-rule="evenodd" clip-rule="evenodd" d="M3.5 6.5V3.5H4.5V6.5H3.5ZM2.5 3C2.5 2.72386 2.72386 2.5 3 2.5H5C5.27614 2.5 5.5 2.72386 5.5 3V7C5.5 7.27614 5.27614 7.5 5 7.5H3C2.72386 7.5 2.5 7.27614 2.5 7V3ZM3.5 12.5V9.5H4.5V12.5H3.5ZM2.5 9C2.5 8.72386 2.72386 8.5 3 8.5H5C5.27614 8.5 5.5 8.72386 5.5 9V13C5.5 13.2761 5.27614 13.5 5 13.5H3C2.72386 13.5 2.5 13.2761 2.5 13V9ZM7.5 3.5V6.5H8.5V3.5H7.5ZM7 2.5C6.72386 2.5 6.5 2.72386 6.5 3V7C6.5 7.27614 6.72386 7.5 7 7.5H9C9.27614 7.5 9.5 7.27614 9.5 7V3C9.5 2.72386 9.27614 2.5 9 2.5H7ZM7.5 12.5V9.5H8.5V12.5H7.5ZM6.5 9C6.5 8.72386 6.72386 8.5 7 8.5H9C9.27614 8.5 9.5 8.72386 9.5 9V13C9.5 13.2761 9.27614 13.5 9 13.5H7C6.72386 13.5 6.5 13.2761 6.5 13V9ZM11.5 3.5V6.5H12.5V3.5H11.5ZM11 2.5C10.7239 2.5 10.5 2.72386 10.5 3V7C10.5 7.27614 10.7239 7.5 11 7.5H13C13.2761 7.5 13.5 7.27614 13.5 7V3C13.5 2.72386 13.2761 2.5 13 2.5H11ZM11.5 12.5V9.5H12.5V12.5H11.5ZM10.5 9C10.5 8.72386 10.7239 8.5 11 8.5H13C13.2761 8.5 13.5 8.72386 13.5 9V13C13.5 13.2761 13.2761 13.5 13 13.5H11C10.7239 13.5 10.5 13.2761 10.5 13V9Z" fill="#1D2129"/>
</svg>
