<svg width="16" height="16" viewBox="0 0 16 16" fill="none" xmlns="http://www.w3.org/2000/svg">
<mask id="path-1-outside-1_14061_2186" maskUnits="userSpaceOnUse" x="4" y="3" width="8" height="10" fill="black">
<rect fill="white" x="4" y="3" width="8" height="10"/>
<path fill-rule="evenodd" clip-rule="evenodd" d="M11 7C11 7.2823 10.961 7.5555 10.8881 7.81449C10.4681 9.721 9 12 8 12C7 12 5.53204 9.72112 5.11195 7.81473C5.03902 7.55566 5 7.28239 5 7C5 6.98409 5.00012 6.96822 5.00037 6.95237C5.00012 6.93692 5 6.92157 5 6.90633C5 6.87042 5.0022 6.8352 5.00652 6.80067C5.10911 5.23675 6.41013 4 8 4C9.58987 4 10.8909 5.23673 10.9935 6.80064C10.9978 6.83518 11 6.87041 11 6.90633C11 6.92157 10.9999 6.93692 10.9996 6.95237C10.9999 6.96822 11 6.9841 11 7ZM8 8.75C9.10457 8.75 10 7.85457 10 6.75C10 5.64543 9.10457 4.75 8 4.75C6.89543 4.75 6 5.64543 6 6.75C6 7.85457 6.89543 8.75 8 8.75Z"/>
</mask>
<path d="M10.8881 7.81449L9.92551 7.54357L9.91772 7.57126L9.91153 7.59936L10.8881 7.81449ZM5.11195 7.81473L6.08852 7.59953L6.08233 7.57143L6.07453 7.54373L5.11195 7.81473ZM5.00037 6.95237L6.00025 6.96793L6.00049 6.95218L6.00024 6.93642L5.00037 6.95237ZM5.00652 6.80067L5.99879 6.9247L6.00245 6.8955L6.00437 6.86613L5.00652 6.80067ZM10.9935 6.80064L9.99563 6.86611L9.99755 6.89548L10.0012 6.92469L10.9935 6.80064ZM10.9996 6.95237L9.99976 6.93642L9.99951 6.95218L9.99975 6.96793L10.9996 6.95237ZM11.8507 8.08541C11.9482 7.73911 12 7.37478 12 7H10C10 7.18982 9.97383 7.37189 9.92551 7.54357L11.8507 8.08541ZM8 13C8.60727 13 9.11563 12.6719 9.46381 12.3743C9.83879 12.0538 10.1868 11.6322 10.4908 11.181C11.0977 10.2805 11.6247 9.11886 11.8647 8.02963L9.91153 7.59936C9.73149 8.41663 9.31449 9.34778 8.83228 10.0634C8.5918 10.4202 8.35902 10.6876 8.16435 10.854C7.94289 11.0432 7.89273 11 8 11V13ZM4.13538 8.02992C4.37538 9.11906 4.9024 10.2806 5.50923 11.1811C5.81326 11.6323 6.16125 12.0538 6.53621 12.3743C6.88439 12.6719 7.39273 13 8 13V11C8.10727 11 8.05711 11.0432 7.83567 10.854C7.64101 10.6876 7.40826 10.4203 7.16779 10.0634C6.68561 9.34789 6.26861 8.41679 6.08852 7.59953L4.13538 8.02992ZM4 7C4 7.3749 4.05185 7.73933 4.14937 8.08573L6.07453 7.54373C6.02618 7.372 6 7.18988 6 7H4ZM4.00049 6.93681C4.00016 6.95784 4 6.97891 4 7H6C6 6.98928 6.00008 6.97859 6.00025 6.96793L4.00049 6.93681ZM4 6.90633C4 6.92699 4.00017 6.94766 4.0005 6.96832L6.00024 6.93642C6.00008 6.92618 6 6.91615 6 6.90633H4ZM4.01424 6.67663C4.00472 6.75281 4 6.82946 4 6.90633H6C6 6.91138 5.99968 6.91759 5.99879 6.9247L4.01424 6.67663ZM8 3C5.87977 3 4.14551 4.64902 4.00866 6.73521L6.00437 6.86613C6.0727 5.82447 6.94048 5 8 5V3ZM11.9913 6.73518C11.8545 4.64901 10.1202 3 8 3V5C9.05952 5 9.92729 5.82446 9.99563 6.86611L11.9913 6.73518ZM12 6.90633C12 6.82946 11.9953 6.7528 11.9858 6.6766L10.0012 6.92469C10.0003 6.91757 10 6.91136 10 6.90633H12ZM11.9995 6.96833C11.9998 6.94766 12 6.92699 12 6.90633H10C10 6.91615 9.99992 6.92618 9.99976 6.93642L11.9995 6.96833ZM12 7C12 6.9789 11.9998 6.95784 11.9995 6.93682L9.99975 6.96793C9.99992 6.9786 10 6.98929 10 7H12ZM9 6.75C9 7.30228 8.55228 7.75 8 7.75V9.75C9.65685 9.75 11 8.40685 11 6.75H9ZM8 5.75C8.55228 5.75 9 6.19772 9 6.75H11C11 5.09315 9.65685 3.75 8 3.75V5.75ZM7 6.75C7 6.19772 7.44772 5.75 8 5.75V3.75C6.34315 3.75 5 5.09315 5 6.75H7ZM8 7.75C7.44772 7.75 7 7.30228 7 6.75H5C5 8.40685 6.34315 9.75 8 9.75V7.75Z" fill="#1D2129" mask="url(#path-1-outside-1_14061_2186)"/>
</svg>
