<svg width="16" height="16" viewBox="0 0 16 16" fill="none" xmlns="http://www.w3.org/2000/svg">
<path d="M2.5 5C2.5 4.72386 2.72386 4.5 3 4.5H13C13.2761 4.5 13.5 4.72386 13.5 5V11C13.5 11.2761 13.2761 11.5 13 11.5H3C2.72386 11.5 2.5 11.2761 2.5 11V5Z" stroke="#1D2129"/>
<path d="M5.23145 10H4.44629V6.75098H4.41992C4.29688 6.81836 3.66113 7.23145 3.5 7.34277V6.61914C3.67285 6.49316 4.29102 6.09473 4.4668 6.00098H5.23145V10Z" fill="#1D2129"/>
<path d="M6.72852 7.19336H5.97852V7.15527C5.97852 6.48145 6.51758 5.9248 7.37012 5.9248C8.17578 5.9248 8.71191 6.39062 8.71191 7.04395C8.71191 7.50977 8.46875 7.82617 8.00879 8.31836L7.10645 9.33203V9.35547H8.78223V10H6.02832V9.50781L7.48145 7.93164C7.74219 7.65625 7.92676 7.41895 7.92676 7.11719C7.92676 6.77734 7.6748 6.55762 7.33496 6.55762C6.96289 6.55762 6.72852 6.83008 6.72852 7.14941C6.72852 7.16406 6.72852 7.18457 6.72852 7.19336Z" fill="#1D2129"/>
<path d="M10.2793 8.24512V7.63574H10.6895C11.0703 7.63574 11.3281 7.40137 11.3252 7.07031C11.3252 6.7627 11.0762 6.53711 10.7012 6.53711C10.291 6.53711 10.0947 6.82715 10.0771 7.08789H9.33887C9.35645 6.44922 9.83984 5.9248 10.7275 5.9248C11.5215 5.9248 12.0928 6.3584 12.1045 6.96484C12.1133 7.53027 11.6855 7.84375 11.3809 7.8877V7.91699C11.75 7.94336 12.2246 8.23926 12.2334 8.88086C12.2422 9.60449 11.5449 10.0791 10.6953 10.0791C9.73438 10.0791 9.27734 9.52832 9.2627 8.88672H9.99219C10.0244 9.20898 10.2793 9.45801 10.7158 9.45801C11.1758 9.45801 11.4453 9.19434 11.4424 8.84277C11.4395 8.49707 11.1758 8.24512 10.71 8.24512H10.2793Z" fill="#1D2129"/>
</svg>
