<svg width="16" height="16" viewBox="0 0 16 16" fill="none" xmlns="http://www.w3.org/2000/svg">
<path d="M11.541 8.85115C10.9564 8.8618 10.3745 8.93364 9.80489 9.0655C9.10291 8.36611 8.52064 7.55611 8.08136 6.66788C8.55856 5.0006 8.5799 3.86387 8.22394 3.32557C8.14452 3.20902 8.03878 3.11281 7.91526 3.04474C7.79175 2.97666 7.65394 2.93863 7.51299 2.93372C7.33725 2.91905 7.16115 2.95742 7.00744 3.04387C6.85373 3.13032 6.72948 3.26088 6.65074 3.41868C6.15318 4.30906 6.87188 6.07623 7.2065 6.79106C6.82985 8.06758 6.33903 9.30761 5.74 10.4961C3.07856 11.724 3 12.4699 3 12.7386C3.0097 13.0703 3.19107 13.3671 3.46944 13.5067C3.59074 13.5896 3.73587 13.6305 3.88262 13.6231C4.59356 13.6231 5.37628 12.7851 6.23853 11.1479C7.29574 10.6649 8.39658 10.2847 9.52653 10.0112C10.0891 10.532 10.8117 10.8482 11.5769 10.9093C12.0464 10.9093 12.9998 10.9093 12.9998 9.88798C13.0075 9.54172 12.8155 8.88121 11.541 8.85018V8.85115ZM3.93208 12.7696H3.84673C4.08048 12.3836 4.42868 12.081 4.84283 11.9005C4.64803 12.2862 4.32644 12.5931 3.93208 12.7696ZM7.33453 3.8629C7.37107 3.84894 7.41147 3.84894 7.44801 3.8629H7.53336C7.68006 4.36483 7.68006 4.89827 7.53336 5.4002C7.31192 4.92002 7.24254 4.38362 7.33453 3.8629ZM8.75836 9.65617C8.11822 9.81815 7.48778 10.018 6.87188 10.2565V10.1945H6.81466C7.12212 9.53106 7.40049 8.85406 7.64878 8.16639V8.10432C7.96885 8.63098 8.33742 9.11981 8.7506 9.56403H8.67301L8.75836 9.65714V9.65617ZM11.605 10.049C11.3148 10.0369 11.0297 9.96905 10.7651 9.84919C10.9989 9.79972 11.2384 9.77838 11.477 9.78808C12.025 9.78808 12.1395 9.93357 12.1395 10.0257C11.9637 10.0776 11.7779 10.0856 11.5983 10.049H11.605Z" fill="#1D2129"/>
</svg>
