<svg width="16" height="16" viewBox="0 0 16 16" fill="none" xmlns="http://www.w3.org/2000/svg">
<path d="M7.90486 3.79271C7.9348 3.70057 8.06514 3.70057 8.09508 3.79271L8.98783 6.54032C9.00122 6.58152 9.03961 6.60942 9.08293 6.60942H11.972C12.0688 6.60942 12.1091 6.73338 12.0307 6.79032L9.69347 8.48844C9.65842 8.51391 9.64375 8.55905 9.65714 8.60025L10.5499 11.3479C10.5798 11.44 10.4744 11.5166 10.396 11.4597L8.05875 9.76156C8.0237 9.73609 7.97624 9.73609 7.94119 9.76156L5.60393 11.4597C5.52556 11.5166 5.42011 11.44 5.45004 11.3479L6.3428 8.60025C6.35619 8.55905 6.34152 8.51391 6.30647 8.48844L3.9692 6.79032C3.89083 6.73338 3.93111 6.60942 4.02798 6.60942H6.91701C6.96033 6.60942 6.99872 6.58152 7.01211 6.54032L7.90486 3.79271Z" stroke="#1D2129"/>
</svg>
