<svg width="16" height="16" viewBox="0 0 16 16" fill="none" xmlns="http://www.w3.org/2000/svg">
<path fill-rule="evenodd" clip-rule="evenodd" d="M8.50003 4.62321C8.50003 4.34707 8.27618 4.12321 8.00003 4.12321C7.72389 4.12321 7.50003 4.34707 7.50003 4.62321V7.62321C7.50003 7.89935 7.72389 8.12321 8.00003 8.12321C8.27618 8.12321 8.50003 7.89935 8.50003 7.62321V4.62321ZM8.00003 3.12321C8.82846 3.12321 9.50003 3.79478 9.50003 4.62321V7.62321C9.50003 8.45164 8.82846 9.12321 8.00003 9.12321C7.17161 9.12321 6.50003 8.45164 6.50003 7.62321V4.62321C6.50003 3.79478 7.17161 3.12321 8.00003 3.12321ZM5.50003 6.72428V7.22428V7.65285C5.50003 9.03357 6.61932 10.1529 8.00003 10.1529C9.38075 10.1529 10.5 9.03357 10.5 7.65285V7.22428V6.72428H11.5V7.22428V7.65285C11.5 9.41608 10.1962 10.8748 8.50006 11.1174V12.1921H9.40768H9.90768V13.1921H9.40768H8.00006H6.59244H6.09244V12.1921H6.59244H7.50006V11.1174C5.8039 10.8748 4.50003 9.4161 4.50003 7.65285V7.22428V6.72428H5.50003Z" fill="#1D2129"/>
</svg>
