<svg width="16" height="16" viewBox="0 0 16 16" fill="none" xmlns="http://www.w3.org/2000/svg">
<path d="M6.5 4.49997L6.37873 4.98504L6.5 4.49997ZM6 10.5L6.30119 10.1009V10.1009L6 10.5ZM9.5 7L9.97047 6.83071C9.90974 6.66195 9.76328 6.53864 9.58664 6.50756C9.41001 6.47648 9.23025 6.54239 9.11557 6.68029L9.5 7ZM3 9.99997C5.07731 9.99997 6.6034 8.74422 7.33325 7.43028C7.69613 6.77699 7.88912 6.06207 7.81717 5.43516C7.78065 5.11694 7.67346 4.80637 7.46828 4.54768C7.2597 4.28471 6.97086 4.10231 6.62127 4.0149L6.37873 4.98504C6.52914 5.02265 6.62227 5.09026 6.68479 5.16909C6.7507 5.25219 6.80373 5.37522 6.82369 5.54919C6.86472 5.90665 6.75579 6.41048 6.45906 6.94469C5.86968 8.00574 4.64577 8.99997 3 8.99997V9.99997ZM6.62127 4.0149C5.78476 3.80576 5.08714 4.04624 4.61449 4.59992C4.17268 5.11749 3.96949 5.85682 3.9321 6.60398C3.85796 8.08538 4.42531 9.93801 5.69881 10.8991L6.30119 10.1009C5.37469 9.40167 4.86733 7.9231 4.93085 6.65397C4.96228 6.02586 5.131 5.53509 5.37507 5.24918C5.58831 4.99937 5.89054 4.86299 6.37873 4.98504L6.62127 4.0149ZM5.69881 10.8991C5.97341 11.1063 6.26509 11.2372 6.57207 11.2683C6.88266 11.2998 7.16692 11.2248 7.41527 11.0891C7.88635 10.8317 8.25007 10.3436 8.53469 9.87114C8.82702 9.38586 9.08632 8.82766 9.31007 8.36023C9.54812 7.86289 9.73051 7.50478 9.88443 7.31971L9.11557 6.68029C8.86468 6.98197 8.62717 7.47076 8.40807 7.92847C8.17467 8.41609 7.93957 8.92108 7.6781 9.35514C7.40892 9.80199 7.15945 10.0894 6.93578 10.2116C6.83675 10.2657 6.75325 10.2816 6.67292 10.2734C6.58898 10.2649 6.46659 10.2257 6.30119 10.1009L5.69881 10.8991ZM9.02953 7.16929C9.08243 7.31631 9.13164 7.55798 9.18679 7.88231C9.23855 8.18674 9.29436 8.55569 9.3613 8.891C9.42752 9.22269 9.51423 9.57522 9.64523 9.85388C9.75975 10.0975 10.0122 10.5 10.5 10.5V9.5C10.6493 9.5 10.6427 9.62521 10.5502 9.42845C10.4742 9.26674 10.406 9.01583 10.3419 8.69522C10.2787 8.37824 10.229 8.04604 10.1726 7.71469C10.1197 7.40325 10.0582 7.0745 9.97047 6.83071L9.02953 7.16929ZM10.5 10.5C10.7277 10.5 10.9116 10.4062 11.0457 10.3038C11.1759 10.2043 11.2834 10.0784 11.3707 9.96287C11.4596 9.84514 11.5456 9.71328 11.6255 9.58897C11.7086 9.45977 11.7866 9.33643 11.8708 9.21354C12.2255 8.69619 12.5243 8.44367 12.9371 8.49603L13.0629 7.50397C12.0213 7.37186 11.4085 8.11933 11.046 8.64811C10.951 8.78674 10.8618 8.92781 10.7844 9.04812C10.7039 9.17332 10.6362 9.27607 10.5727 9.36024C10.5074 9.44661 10.4637 9.48999 10.4385 9.5092C10.4172 9.5255 10.4416 9.5 10.5 9.5V10.5Z" fill="#1D2129"/>
</svg>
