<svg width="16" height="16" viewBox="0 0 16 16" fill="none" xmlns="http://www.w3.org/2000/svg">
<path d="M5.84974 5C6.45844 5 6.91891 5.26063 7.23114 5.78188C7.54336 6.30314 7.69947 7.04042 7.69947 7.99373C7.69947 8.95261 7.54336 9.69408 7.23114 10.2181C6.91891 10.7394 6.45844 11 5.84974 11C5.24103 11 4.78056 10.7394 4.46834 10.2181C4.15611 9.69408 4 8.95261 4 7.99373C4 7.04042 4.15611 6.30314 4.46834 5.78188C4.78056 5.26063 5.24103 5 5.84974 5ZM5.84974 5.71498C5.53751 5.71498 5.29744 5.89199 5.12952 6.24599C4.9616 6.59721 4.87764 7.17979 4.87764 7.99373C4.87764 8.58746 4.91175 9.05017 4.97997 9.38188L6.51485 6.05366C6.43877 5.9338 6.34562 5.84739 6.23543 5.79443C6.12523 5.74146 5.99667 5.71498 5.84974 5.71498ZM6.82183 7.99373C6.82183 7.46132 6.79428 7.03624 6.73918 6.71847L5.22397 10.0049C5.36566 10.1916 5.57424 10.285 5.84974 10.285C6.16459 10.285 6.40466 10.1094 6.56995 9.75819C6.73787 9.40697 6.82183 8.81882 6.82183 7.99373Z" fill="black"/>
<path d="M10.1503 5C10.759 5 11.2194 5.26063 11.5317 5.78188C11.8439 6.30314 12 7.04042 12 7.99373C12 8.95261 11.8439 9.69408 11.5317 10.2181C11.2194 10.7394 10.759 11 10.1503 11C9.54156 11 9.08109 10.7394 8.76886 10.2181C8.45664 9.69408 8.30053 8.95261 8.30053 7.99373C8.30053 7.04042 8.45664 6.30314 8.76886 5.78188C9.08109 5.26063 9.54156 5 10.1503 5ZM10.1503 5.71498C9.83804 5.71498 9.59797 5.89199 9.43005 6.24599C9.26213 6.59721 9.17817 7.17979 9.17817 7.99373C9.17817 8.58746 9.21228 9.05017 9.28049 9.38188L10.8154 6.05366C10.7393 5.9338 10.6461 5.84739 10.536 5.79442C10.4258 5.74146 10.2972 5.71498 10.1503 5.71498ZM11.1224 7.99373C11.1224 7.46132 11.0948 7.03624 11.0397 6.71847L9.5245 10.0049C9.66618 10.1916 9.87477 10.285 10.1503 10.285C10.4651 10.285 10.7052 10.1094 10.8705 9.75819C11.0384 9.40697 11.1224 8.81881 11.1224 7.99373Z" fill="black"/>
</svg>
