<svg width="780" height="1359" viewBox="0 0 780 1359" fill="none" xmlns="http://www.w3.org/2000/svg">
<g clip-path="url(#clip0_947_623)">
<rect width="780" height="1359" fill="url(#paint0_linear_947_623)"/>
<rect x="-298.323" y="268.43" width="852.539" height="293.569" transform="rotate(-45 -298.323 268.43)" fill="url(#paint1_linear_947_623)"/>
<rect x="224.1" y="518.852" width="785.294" height="286.068" transform="rotate(-45 224.1 518.852)" fill="url(#paint2_linear_947_623)"/>
<path fill-rule="evenodd" clip-rule="evenodd" d="M362 102H373V142H362V102ZM347 117H358V142H347V117ZM388 102H377V142H388V102Z" fill="white"/>
<rect x="347" y="102" width="11" height="11" fill="#FF58BE"/>
<path fill-rule="evenodd" clip-rule="evenodd" d="M421 122C421 126.971 416.971 131 412 131C407.029 131 403 126.971 403 122C403 117.029 407.029 113 412 113C416.971 113 421 117.029 421 122ZM421.001 139.865C418.295 141.231 415.237 142 412 142C400.954 142 392 133.046 392 122C392 110.954 400.954 102 412 102C423.046 102 432 110.954 432 122H432.001V142H421.001V139.865Z" fill="white"/>
</g>
<defs>
<linearGradient id="paint0_linear_947_623" x1="399.5" y1="-7.47452" x2="413.5" y2="1359" gradientUnits="userSpaceOnUse">
<stop stop-color="#654AEC"/>
<stop offset="1" stop-color="#4D4AEC" stop-opacity="0"/>
</linearGradient>
<linearGradient id="paint1_linear_947_623" x1="101.371" y1="566.215" x2="88.422" y2="290.911" gradientUnits="userSpaceOnUse">
<stop stop-color="white" stop-opacity="0.1"/>
<stop offset="1" stop-color="white" stop-opacity="0"/>
</linearGradient>
<linearGradient id="paint2_linear_947_623" x1="1044.34" y1="525.168" x2="197.847" y2="517.024" gradientUnits="userSpaceOnUse">
<stop stop-color="white" stop-opacity="0"/>
<stop offset="1" stop-color="white" stop-opacity="0.2"/>
</linearGradient>
<clipPath id="clip0_947_623">
<rect width="780" height="1359" fill="white"/>
</clipPath>
</defs>
</svg>
