<svg width="96" height="96" viewBox="0 0 96 96" fill="none" xmlns="http://www.w3.org/2000/svg">
<path fill-rule="evenodd" clip-rule="evenodd" d="M21.6647 30.1503C12.8269 31.2953 6 38.8505 6 48.0002C6 57.9414 14.0589 66.0002 24 66.0002H39.0004C40.6572 66.0002 42.0004 64.6571 42.0004 63.0002C42.0004 61.3434 40.6572 60.0002 39.0004 60.0002H24C17.3726 60.0002 12 54.6277 12 48.0002C12 41.3728 17.3726 36.0002 24 36.0002H27.5146L21.6647 30.1503ZM36.5146 45.0002H33.0004C31.3435 45.0002 30.0004 46.3434 30.0004 48.0002C30.0004 49.6571 31.3435 51.0002 33.0004 51.0002H42.5146L36.5146 45.0002ZM54.038 62.5236C54.0132 62.6788 54.0004 62.838 54.0004 63.0002C54.0004 64.6571 55.3435 66.0002 57.0004 66.0002H57.5146L54.038 62.5236ZM68.9327 73.1757L22.2212 26.4642C21.0709 25.291 21.078 23.4074 22.2424 22.2429C23.414 21.0714 25.3135 21.0714 26.4851 22.2429L34.2424 30.0002H34.2426L40.0528 35.8105C40.0527 35.8105 40.0527 35.8105 40.0526 35.8105L49.2424 45.0002H49.2426L55.2426 51.0002H55.2424L64.2424 60.0002H64.2426L70.2426 66.0002H70.2424L73.1541 68.912C74.3257 70.0836 74.3257 71.9831 73.1541 73.1546C71.9896 74.3191 70.1059 74.3262 68.9327 73.1757ZM74.3352 65.8502C83.1733 64.7055 90.0004 57.1501 90.0004 48.0002C90.0004 38.0591 81.9415 30.0002 72.0004 30.0002H57.0004C55.3435 30.0002 54.0004 31.3434 54.0004 33.0002C54.0004 34.6571 55.3435 36.0002 57.0004 36.0002H72.0004C78.6278 36.0002 84.0004 41.3728 84.0004 48.0002C84.0004 54.6277 78.6278 60.0002 72.0004 60.0002H68.4852L74.3352 65.8502ZM59.4852 51.0002H63.0004C64.6572 51.0002 66.0004 49.6571 66.0004 48.0002C66.0004 46.3434 64.6572 45.0002 63.0004 45.0002H53.4852L59.4852 51.0002ZM41.9626 33.4776C41.9874 33.3222 42.0004 33.1627 42.0004 33.0002C42.0004 31.3434 40.6572 30.0002 39.0004 30.0002H38.4852L41.9626 33.4776Z" fill="url(#paint0_linear_9725_3976)"/>
<defs>
<linearGradient id="paint0_linear_9725_3976" x1="48.0002" y1="33.0002" x2="48.0002" y2="63.0002" gradientUnits="userSpaceOnUse">
<stop stop-color="#654AEC"/>
<stop offset="1" stop-color="#148BFA"/>
</linearGradient>
</defs>
</svg>
