<svg width="48" height="48" viewBox="0 0 48 48" fill="none" xmlns="http://www.w3.org/2000/svg">
<g id="Linkedin">
<g id="Vector">
<path d="M12.1072 15.776V43.9757H2.73588V15.776H12.1072Z" fill="#0A66C2"/>
<path d="M12.7238 7.05268C12.7238 9.76141 10.6903 11.9237 7.42347 11.9237H7.36102C4.21514 11.9237 2.18164 9.76141 2.18164 7.05268C2.18164 4.2893 4.27759 2.18164 7.48592 2.18164C10.6942 2.18164 12.6653 4.2854 12.7238 7.05268Z" fill="#0A66C2"/>
<path d="M26.5798 28.2269V43.9757H17.2124C17.2124 43.9757 17.3295 18.4223 17.2124 15.776H26.5798V19.765C27.8287 17.8408 30.0574 15.1086 35.0299 15.1086C41.1968 15.1086 45.818 19.1366 45.818 27.8014V43.9757H36.4467V28.8904C36.4467 25.0966 35.0924 22.5127 31.7006 22.5127C29.1089 22.5127 27.5672 24.2574 26.892 25.9396C26.6422 26.5407 26.5798 27.3838 26.5798 28.2269Z" fill="#0A66C2"/>
</g>
</g>
</svg>
