<svg xmlns="http://www.w3.org/2000/svg" width="24" height="24" viewBox="0 0 24 24" fill="none">
    <path d="M6.05358 7.88802V21.9879H1.36794V7.88802H6.05358Z" fill="#0A66C2"/>
    <path d="M6.36192 3.52634C6.36192 4.8807 5.34517 5.96186 3.71173 5.96186H3.68051C2.10757 5.96186 1.09082 4.8807 1.09082 3.52634C1.09082 2.14465 2.1388 1.09082 3.74296 1.09082C5.34712 1.09082 6.33265 2.1427 6.36192 3.52634Z" fill="#0A66C2"/>
    <path d="M13.2899 14.1134V21.9879H8.60619C8.60619 21.9879 8.66473 9.21116 8.60619 7.88802H13.2899V9.88249C13.9144 8.92039 15.0287 7.55431 17.515 7.55431C20.5984 7.55431 22.909 9.5683 22.909 13.9007V21.9879H18.2234V14.4452C18.2234 12.5483 17.5462 11.2564 15.8503 11.2564C14.5545 11.2564 13.7836 12.1287 13.446 12.9698C13.3211 13.2704 13.2899 13.6919 13.2899 14.1134Z" fill="#0A66C2"/>
</svg>