<svg width="48" height="48" viewBox="0 0 48 48" fill="none" xmlns="http://www.w3.org/2000/svg">
<g id="Reddit" clip-path="url(#clip0_9725_3724)">
<path id="Vector" d="M18.5012 24C17.8411 24.0008 17.2082 24.2634 16.7414 24.7302C16.2746 25.197 16.012 25.8299 16.0112 26.49C16.0112 27.867 17.1272 29.01 18.5012 28.983C19.1471 28.9606 19.7589 28.6883 20.2079 28.2235C20.6568 27.7587 20.9078 27.1377 20.9078 26.4915C20.9078 25.8453 20.6568 25.2243 20.2079 24.7595C19.7589 24.2947 19.1471 24.0224 18.5012 24ZM24.0302 34.941C24.9752 34.941 28.2392 34.827 29.9582 33.108C30.0696 32.981 30.131 32.8179 30.131 32.649C30.131 32.4801 30.0696 32.317 29.9582 32.19C29.8987 32.1285 29.8273 32.0796 29.7485 32.0462C29.6696 32.0128 29.5849 31.9956 29.4992 31.9956C29.4136 31.9956 29.3288 32.0128 29.25 32.0462C29.1711 32.0796 29.0998 32.1285 29.0402 32.19C27.9812 33.279 25.6622 33.651 24.0302 33.651C22.3952 33.651 20.1062 33.279 19.0172 32.19C18.9577 32.1285 18.8863 32.0796 18.8075 32.0462C18.7286 32.0128 18.6439 31.9956 18.5582 31.9956C18.4726 31.9956 18.3878 32.0128 18.309 32.0462C18.2301 32.0796 18.1588 32.1285 18.0992 32.19C18.0377 32.2496 17.9888 32.3209 17.9554 32.3998C17.922 32.4786 17.9048 32.5634 17.9048 32.649C17.9048 32.7346 17.922 32.8194 17.9554 32.8982C17.9888 32.9771 18.0377 33.0484 18.0992 33.108C19.7912 34.797 23.0552 34.938 24.0302 34.938V34.941ZM27.0062 26.52C27.0062 27.894 28.1252 29.01 29.4992 29.01C30.8732 29.01 31.9892 27.867 31.9892 26.52C31.9578 25.8808 31.6818 25.2781 31.2183 24.8367C30.7548 24.3954 30.1392 24.1493 29.4992 24.1493C28.8592 24.1493 28.2437 24.3954 27.7802 24.8367C27.3167 25.2781 27.0406 25.8808 27.0092 26.52H27.0062Z" fill="#FF4500"/>
<path id="Vector_2" d="M48 24C48 30.3652 45.4714 36.4697 40.9706 40.9706C36.4697 45.4714 30.3652 48 24 48C17.6348 48 11.5303 45.4714 7.02944 40.9706C2.52856 36.4697 0 30.3652 0 24C0 17.6348 2.52856 11.5303 7.02944 7.02944C11.5303 2.52856 17.6348 0 24 0C30.3652 0 36.4697 2.52856 40.9706 7.02944C45.4714 11.5303 48 17.6348 48 24ZM36.516 20.505C35.571 20.505 34.71 20.877 34.08 21.48C31.677 19.761 28.38 18.645 24.717 18.501L26.319 10.998L31.533 12.114C31.5559 12.6008 31.7212 13.0703 32.0083 13.4641C32.2955 13.8579 32.6919 14.1587 33.1484 14.3294C33.6049 14.5 34.1015 14.5329 34.5765 14.4241C35.0516 14.3152 35.4843 14.0693 35.8209 13.7168C36.1575 13.3644 36.3833 12.9209 36.4703 12.4413C36.5573 11.9618 36.5016 11.4673 36.3102 11.019C36.1187 10.5708 35.8 10.1887 35.3934 9.91987C34.9869 9.65109 34.5104 9.50754 34.023 9.507C33.5568 9.50863 33.1005 9.64109 32.7059 9.8893C32.3113 10.1375 31.9943 10.4915 31.791 10.911L25.977 9.681C25.8987 9.66414 25.8179 9.66288 25.7391 9.67729C25.6604 9.69171 25.5852 9.72151 25.518 9.765C25.4479 9.80873 25.3884 9.86748 25.3438 9.937C25.2992 10.0065 25.2706 10.0851 25.26 10.167L23.484 18.531C19.764 18.645 16.41 19.761 13.974 21.507C13.344 20.907 12.486 20.535 11.544 20.535C10.7451 20.5338 9.97002 20.8068 9.34823 21.3084C8.72644 21.81 8.29562 22.5098 8.12775 23.2909C7.95988 24.0719 8.06513 24.8869 8.42592 25.5997C8.78671 26.3125 9.38118 26.8798 10.11 27.207C10.05 27.552 10.023 27.897 10.023 28.266C10.023 33.651 16.296 38.034 24.03 38.034C31.761 38.034 38.034 33.681 38.034 28.266C38.034 27.924 38.004 27.552 37.947 27.207C39.15 26.664 40.011 25.431 40.011 24C40.011 22.05 38.436 20.505 36.516 20.505Z" fill="#FF4500"/>
</g>
<defs>
<clipPath id="clip0_9725_3724">
<rect width="48" height="48" fill="white"/>
</clipPath>
</defs>
</svg>
