<svg xmlns="http://www.w3.org/2000/svg" width="24" height="24" viewBox="0 0 24 24" fill="none">
    <rect width="24" height="24" rx="4" fill="url(#paint0_linear_10104_3864)"/>
    <path d="M17.6085 6.30043C16.8717 5.55676 15.9942 4.96718 15.0272 4.56603C14.0602 4.16489 13.0231 3.96021 11.9762 3.96392C7.58944 3.96392 4.01435 7.538 4.01033 11.9257C4.01033 13.3311 4.37799 14.6982 5.07211 15.9087L3.94604 20.0362L8.16905 18.9293C9.33731 19.565 10.6461 19.8983 11.9762 19.8986H11.9802C16.3679 19.8986 19.942 16.3245 19.946 11.9328C19.947 10.8861 19.7409 9.84959 19.3396 8.88293C18.9382 7.91627 18.3506 7.03858 17.6085 6.30043ZM11.9762 18.5506C10.7898 18.551 9.6253 18.2317 8.60501 17.6264L8.36392 17.4817L5.85865 18.1387L6.52766 15.6947L6.37096 15.4426C5.70778 14.3881 5.35704 13.1674 5.3594 11.9217C5.3594 8.27933 8.32977 5.30796 11.9802 5.30796C12.8498 5.3064 13.7112 5.477 14.5146 5.80991C15.318 6.14283 16.0476 6.63148 16.6613 7.24769C17.2771 7.8615 17.7652 8.59116 18.0976 9.39458C18.4301 10.198 18.6001 11.0593 18.598 11.9288C18.594 15.5842 15.6236 18.5506 11.9762 18.5506ZM15.6075 13.5943C15.4096 13.4948 14.4322 13.0136 14.2484 12.9453C14.0656 12.88 13.932 12.8459 13.8014 13.0448C13.6678 13.2427 13.2861 13.6937 13.1716 13.8233C13.057 13.9569 12.9385 13.972 12.7396 13.8735C12.5417 13.7731 11.8998 13.5641 11.1404 12.8841C10.5478 12.3567 10.151 11.7037 10.0324 11.5059C9.91792 11.307 10.0214 11.2005 10.1208 11.101C10.2082 11.0126 10.3187 10.868 10.4182 10.7535C10.5186 10.639 10.5518 10.5546 10.6171 10.422C10.6824 10.2874 10.6512 10.1729 10.602 10.0734C10.5518 9.97396 10.155 8.99254 9.98723 8.59676C9.82651 8.206 9.66277 8.26025 9.54022 8.25523C9.4257 8.24819 9.2921 8.24819 9.1585 8.24819C9.05761 8.2507 8.95833 8.27404 8.86688 8.31673C8.77544 8.35943 8.6938 8.42057 8.62711 8.49631C8.44429 8.69521 7.93299 9.17637 7.93299 10.1578C7.93299 11.1392 8.64619 12.0824 8.74665 12.216C8.84509 12.3497 10.1469 14.3577 12.1449 15.2216C12.6171 15.4275 12.9887 15.549 13.279 15.6415C13.7562 15.7941 14.1871 15.771 14.5307 15.7218C14.9124 15.6636 15.707 15.2397 15.8747 14.7746C16.0395 14.3085 16.0395 13.9107 15.9892 13.8273C15.94 13.7429 15.8064 13.6937 15.6075 13.5943Z" fill="white"/>
    <defs>
        <linearGradient id="paint0_linear_10104_3864" x1="12" y1="0" x2="12" y2="24" gradientUnits="userSpaceOnUse">
            <stop stop-color="#5FFC7B"/>
            <stop offset="1" stop-color="#28D146"/>
        </linearGradient>
    </defs>
</svg>