<svg xmlns="http://www.w3.org/2000/svg" width="24" height="24" viewBox="0 0 24 24" fill="none">
    <rect width="24" height="24" rx="4" fill="url(#paint0_linear_8290_2043)"/>
    <path d="M17.6083 6.30043C16.8714 5.55676 15.994 4.96718 15.027 4.56603C14.06 4.16489 13.0228 3.96021 11.9759 3.96392C7.58919 3.96392 4.01411 7.538 4.01009 11.9257C4.01009 13.3311 4.37774 14.6982 5.07187 15.9087L3.9458 20.0362L8.1688 18.9293C9.33706 19.565 10.6459 19.8983 11.9759 19.8986H11.98C16.3677 19.8986 19.9418 16.3245 19.9458 11.9328C19.9468 10.8861 19.7407 9.84959 19.3393 8.88293C18.938 7.91627 18.3503 7.03858 17.6083 6.30043ZM11.9759 18.5506C10.7896 18.551 9.62506 18.2317 8.60476 17.6264L8.36368 17.4817L5.85841 18.1387L6.52742 15.6947L6.37071 15.4426C5.70754 14.3881 5.3568 13.1674 5.35916 11.9217C5.35916 8.27933 8.32953 5.30796 11.98 5.30796C12.8496 5.3064 13.711 5.477 14.5144 5.80991C15.3178 6.14283 16.0474 6.63148 16.661 7.24769C17.2768 7.8615 17.765 8.59116 18.0974 9.39458C18.4298 10.198 18.5999 11.0593 18.5977 11.9288C18.5937 15.5842 15.6233 18.5506 11.9759 18.5506ZM15.6073 13.5943C15.4094 13.4948 14.432 13.0136 14.2482 12.9453C14.0653 12.88 13.9317 12.8459 13.8011 13.0448C13.6675 13.2427 13.2858 13.6937 13.1713 13.8233C13.0568 13.9569 12.9383 13.972 12.7394 13.8735C12.5415 13.7731 11.8996 13.5641 11.1402 12.8841C10.5475 12.3567 10.1507 11.7037 10.0322 11.5059C9.91767 11.307 10.0211 11.2005 10.1206 11.101C10.208 11.0126 10.3185 10.868 10.4179 10.7535C10.5184 10.639 10.5515 10.5546 10.6168 10.422C10.6821 10.2874 10.651 10.1729 10.6018 10.0734C10.5515 9.97396 10.1547 8.99254 9.98698 8.59676C9.82626 8.206 9.66252 8.26025 9.53997 8.25523C9.42546 8.24819 9.29186 8.24819 9.15826 8.24819C9.05736 8.2507 8.95808 8.27404 8.86664 8.31673C8.77519 8.35943 8.69356 8.42057 8.62686 8.49631C8.44404 8.69521 7.93274 9.17637 7.93274 10.1578C7.93274 11.1392 8.64595 12.0824 8.7464 12.216C8.84484 12.3497 10.1467 14.3577 12.1447 15.2216C12.6168 15.4275 12.9885 15.549 13.2788 15.6415C13.7559 15.7941 14.1869 15.771 14.5304 15.7218C14.9121 15.6636 15.7067 15.2397 15.8745 14.7746C16.0392 14.3085 16.0392 13.9107 15.989 13.8273C15.9398 13.7429 15.8062 13.6937 15.6073 13.5943Z" fill="white"/>
    <defs>
        <linearGradient id="paint0_linear_8290_2043" x1="12" y1="0" x2="12" y2="24" gradientUnits="userSpaceOnUse">
            <stop stop-color="#00FF68"/>
            <stop offset="1" stop-color="#00D523"/>
        </linearGradient>
    </defs>
</svg>