<svg width="48" height="48" viewBox="0 0 48 48" fill="none" xmlns="http://www.w3.org/2000/svg">
    <rect width="48" height="48" rx="8" fill="url(#paint0_linear_8295_3196)"/>
    <path d="M35.2166 12.6009C33.7429 11.1135 31.9879 9.93435 30.0539 9.13206C28.1199 8.32977 26.0456 7.92041 23.9519 7.92783C15.1784 7.92783 8.02822 15.076 8.02018 23.8515C8.02018 26.6621 8.75549 29.3964 10.1437 31.8173L7.8916 40.0725L16.3376 37.8585C18.6741 39.1301 21.2918 39.7966 23.9519 39.7972H23.9599C32.7354 39.7972 39.8836 32.6491 39.8916 23.8655C39.8936 21.7722 39.4814 19.6992 38.6787 17.7659C37.876 15.8325 36.7007 14.0772 35.2166 12.6009ZM23.9519 37.1011C21.5792 37.1019 19.2501 36.4634 17.2095 35.2528L16.7274 34.9635L11.7168 36.2774L13.0548 31.3894L12.7414 30.8851C11.4151 28.7763 10.7136 26.3347 10.7183 23.8434C10.7183 16.5587 16.6591 10.6159 23.9599 10.6159C25.6992 10.6128 27.4219 10.954 29.0288 11.6198C30.6356 12.2857 32.0947 13.263 33.322 14.4954C34.5536 15.723 35.53 17.1823 36.1948 18.7892C36.8596 20.396 37.1997 22.1186 37.1955 23.8575C37.1874 31.1684 31.2467 37.1011 23.9519 37.1011ZM31.2145 27.1885C30.8188 26.9896 28.864 26.0273 28.4963 25.8907C28.1307 25.7601 27.8635 25.6918 27.6023 26.0896C27.3351 26.4853 26.5717 27.3874 26.3426 27.6466C26.1136 27.9138 25.8765 27.9439 25.4787 27.747C25.083 27.5461 23.7992 27.1282 22.2803 25.7681C21.095 24.7134 20.3014 23.4075 20.0644 23.0117C19.8353 22.6139 20.0423 22.401 20.2412 22.2021C20.416 22.0253 20.637 21.736 20.8358 21.5069C21.0368 21.2779 21.103 21.1091 21.2336 20.844C21.3642 20.5747 21.3019 20.3457 21.2035 20.1468C21.103 19.9479 20.3095 17.9851 19.974 17.1935C19.6525 16.412 19.325 16.5205 19.0799 16.5105C18.8509 16.4964 18.5837 16.4964 18.3165 16.4964C18.1147 16.5014 17.9162 16.5481 17.7333 16.6335C17.5504 16.7189 17.3871 16.8411 17.2537 16.9926C16.8881 17.3904 15.8655 18.3527 15.8655 20.3156C15.8655 22.2784 17.2919 24.1649 17.4928 24.4321C17.6897 24.6993 20.2934 28.7154 24.2894 30.4431C25.2336 30.855 25.977 31.0981 26.5576 31.2829C27.5119 31.5883 28.3738 31.5421 29.0609 31.4436C29.8243 31.3271 31.4134 30.4793 31.749 29.5491C32.0784 28.6169 32.0784 27.8214 31.978 27.6546C31.8795 27.4858 31.6123 27.3874 31.2145 27.1885Z" fill="white"/>
    <defs>
        <linearGradient id="paint0_linear_8295_3196" x1="24" y1="0" x2="24" y2="48" gradientUnits="userSpaceOnUse">
            <stop stop-color="#5FFC7B"/>
            <stop offset="1" stop-color="#28D146"/>
        </linearGradient>
    </defs>
</svg>
