<svg width="486" height="276" viewBox="0 0 486 276" fill="none" xmlns="http://www.w3.org/2000/svg">
<rect width="486" height="275" transform="translate(0 0.5)" fill="url(#paint0_linear_12226_20915)"/>
<path d="M330.474 109.044C331.144 112.11 331.402 115.251 331.244 118.386C331.212 118.934 331.064 119.47 330.81 119.958C330.558 120.445 330.204 120.874 329.774 121.217C329.344 121.559 328.848 121.807 328.316 121.944C327.782 122.081 327.228 122.105 326.686 122.014L312.45 119.664C311.578 119.524 310.778 119.091 310.186 118.437C309.592 117.783 309.238 116.946 309.184 116.064C309.128 113.721 308.282 111.466 306.784 109.664C306.172 108.953 305.486 108.31 304.736 107.746L300.64 132.568L306.49 136.108C314.538 140.852 319.71 146.356 322.004 152.62C324.298 158.877 324.908 165.627 323.768 172.194C323.046 176.817 321.406 181.249 318.942 185.228C316.594 189.017 313.564 192.34 310.006 195.028C306.406 197.723 302.29 199.652 297.916 200.698C295.076 201.394 292.158 201.716 289.234 201.654L287.274 213.54C287.166 214.198 286.928 214.829 286.576 215.395C286.222 215.962 285.762 216.454 285.22 216.842C284.676 217.231 284.062 217.509 283.412 217.66C282.762 217.812 282.09 217.834 281.43 217.725C280.772 217.616 280.142 217.378 279.576 217.026C279.008 216.673 278.516 216.213 278.128 215.67C277.74 215.127 277.462 214.514 277.31 213.864C277.16 213.214 277.138 212.54 277.246 211.882L279.184 200.142C272.192 198.283 266.008 194.165 261.6 188.428C259.454 185.718 257.772 182.67 256.624 179.41C256.272 178.44 255.956 177.444 255.682 176.41C254.964 173.72 254.582 170.951 254.54 168.168C254.52 167.263 254.698 166.365 255.064 165.538C255.43 164.71 255.972 163.974 256.656 163.38C257.338 162.786 258.142 162.35 259.014 162.102C259.884 161.855 260.798 161.802 261.69 161.948L267.704 162.948L271.972 163.65C273.236 163.863 274.402 164.465 275.308 165.372C276.214 166.279 276.814 167.445 277.026 168.71C277.324 170.46 277.832 172.167 278.538 173.796C279.378 175.719 280.904 177.261 282.82 178.12L287.44 150.12L282.334 147.22C276 143.767 270.774 138.594 267.254 132.298C263.942 125.971 262.888 118.705 264.264 111.698C264.986 107.065 266.668 102.633 269.198 98.6856C271.608 94.9264 274.75 91.6908 278.438 89.1716C281.96 86.6514 285.97 84.8976 290.212 84.0236C292.924 83.4576 295.694 83.2154 298.462 83.3016L300.186 72.8476C300.406 71.5176 301.144 70.3292 302.24 69.544C302.782 69.1552 303.396 68.8772 304.046 68.7256C304.696 68.574 305.37 68.552 306.028 68.6606C306.688 68.7694 307.318 69.0068 307.886 69.3592C308.452 69.7118 308.944 70.1724 309.332 70.715C309.722 71.2576 310 71.8714 310.152 72.5216C310.302 73.1716 310.324 73.8452 310.216 74.5036L308.498 84.9316C311.248 85.756 313.878 86.9396 316.32 88.4516C319.948 90.6784 323.062 93.6492 325.456 97.1676C327.872 100.769 329.576 104.801 330.474 109.044ZM301.968 169.06C302.526 166.161 302.122 163.159 300.82 160.51C299.82 158.692 298.444 157.108 296.784 155.862L292.95 179.082C294.192 178.733 295.384 178.224 296.496 177.57C298.002 176.669 299.28 175.432 300.23 173.956C301.178 172.48 301.774 170.804 301.968 169.06ZM291.278 126.82L294.818 105.38C293.142 105.669 291.576 106.408 290.288 107.518C287.994 109.431 286.476 112.114 286.02 115.066C285.674 117.239 285.864 119.465 286.576 121.548C287.558 123.751 289.2 125.594 291.278 126.82Z" fill="#47F8D8"/>
<path d="M240.652 63.4961L241.95 69.7801L164.598 85.7201L185.57 187.504L179.28 188.796L177.982 182.506L157.016 80.7301L234.362 64.7901L240.652 63.4961Z" fill="#47F8D8"/>
<path d="M234.362 64.79L157.016 80.73L177.982 182.506L171.692 183.806L149.426 75.732L233.07 58.5L234.362 64.79Z" fill="#313B53"/>
<path d="M326.424 176.876C333.286 183.068 339.384 190.055 344.592 197.69" stroke="#313553" stroke-width="0.687" stroke-linecap="round" stroke-linejoin="round"/>
<path d="M144.952 210.71C150.3 199.968 157.277 190.118 165.636 181.51" stroke="#313553" stroke-width="0.687" stroke-linecap="round" stroke-linejoin="round"/>
<path d="M319.578 134.004C337.872 144.296 353.736 158.407 366.088 175.378" stroke="#313553" stroke-width="0.687" stroke-linecap="round" stroke-linejoin="round"/>
<path d="M120 192.756C129.299 175.26 142.061 159.84 157.51 147.434" stroke="#313553" stroke-width="0.687" stroke-linecap="round" stroke-linejoin="round"/>
<path d="M177.982 182.506L171.692 183.806L149.426 75.732L233.07 58.5L234.362 64.79" stroke="#313553" stroke-width="0.687" stroke-linecap="round" stroke-linejoin="round"/>
<path d="M180.868 97.3579L237.894 85.6099" stroke="#313553" stroke-width="0.687" stroke-linecap="round" stroke-linejoin="round"/>
<path d="M186.6 109.292L243.628 97.5361" stroke="#313553" stroke-width="0.687" stroke-linecap="round" stroke-linejoin="round"/>
<path d="M181.61 116.874L244.926 103.826" stroke="#313553" stroke-width="0.687" stroke-linecap="round" stroke-linejoin="round"/>
<path d="M182.902 123.162L246.218 110.116" stroke="#313553" stroke-width="0.687" stroke-linecap="round" stroke-linejoin="round"/>
<path d="M184.202 129.452L228.65 120.29" stroke="#313553" stroke-width="0.687" stroke-linecap="round" stroke-linejoin="round"/>
<path d="M191.784 134.444L248.81 122.696" stroke="#313553" stroke-width="0.687" stroke-linecap="round" stroke-linejoin="round"/>
<path d="M186.794 142.026L250.11 128.986" stroke="#313553" stroke-width="0.687" stroke-linecap="round" stroke-linejoin="round"/>
<path d="M188.086 148.314L251.402 135.268" stroke="#313553" stroke-width="0.687" stroke-linecap="round" stroke-linejoin="round"/>
<path d="M195.668 153.312L252.702 141.558" stroke="#313553" stroke-width="0.687" stroke-linecap="round" stroke-linejoin="round"/>
<path d="M190.678 160.894L253.994 147.848" stroke="#313553" stroke-width="0.687" stroke-linecap="round" stroke-linejoin="round"/>
<path d="M191.976 167.184L255.292 154.138" stroke="#313553" stroke-width="0.687" stroke-linecap="round" stroke-linejoin="round"/>
<path d="M212.192 179.406L218.648 178.08L226.318 176.498L242.252 173.212L245.278 172.586L250.358 171.542" stroke="#313553" stroke-width="0.687" stroke-linecap="round" stroke-linejoin="round"/>
<path d="M208.248 171.92L205.086 176.724L201.924 181.522" stroke="#313553" stroke-width="0.687" stroke-linecap="round" stroke-linejoin="round"/>
<path d="M200.28 173.562L205.086 176.724L209.884 179.88" stroke="#313553" stroke-width="0.687" stroke-linecap="round" stroke-linejoin="round"/>
<path d="M256.62 179.406C257.768 182.667 259.45 185.714 261.596 188.424C266.006 194.16 272.188 198.278 279.18 200.138L277.242 211.878C277.134 212.536 277.156 213.21 277.306 213.86C277.458 214.51 277.736 215.124 278.124 215.666C278.512 216.209 279.004 216.669 279.572 217.022C280.138 217.375 280.768 217.612 281.426 217.721C282.086 217.83 282.758 217.808 283.408 217.656C284.058 217.505 284.672 217.227 285.216 216.839C285.758 216.45 286.218 215.958 286.572 215.392C286.924 214.825 287.162 214.194 287.27 213.536L289.23 201.65C292.154 201.712 295.072 201.39 297.912 200.694C302.286 199.647 306.402 197.716 310.002 195.02C313.56 192.332 316.59 189.01 318.938 185.22C321.402 181.244 323.044 176.815 323.768 172.194C324.906 165.627 324.298 158.875 322.002 152.618C319.706 146.351 314.534 140.847 306.488 136.106L300.638 132.566L304.734 107.744C305.484 108.308 306.17 108.951 306.782 109.662C308.28 111.464 309.126 113.719 309.182 116.062C309.236 116.944 309.59 117.781 310.184 118.435C310.776 119.09 311.576 119.522 312.448 119.662L326.684 122.012C327.226 122.103 327.78 122.08 328.314 121.942C328.846 121.805 329.342 121.557 329.772 121.215C330.202 120.872 330.556 120.444 330.808 119.956C331.062 119.468 331.21 118.932 331.242 118.384C331.4 115.25 331.142 112.108 330.472 109.042C329.572 104.803 327.87 100.776 325.454 97.1778C323.06 93.6594 319.946 90.6886 316.318 88.462C313.876 86.9498 311.246 85.7662 308.496 84.942L310.214 74.514C310.322 73.8554 310.3 73.1818 310.15 72.5318C309.998 71.8816 309.72 71.2678 309.33 70.7252C308.942 70.1826 308.45 69.722 307.884 69.3696C307.316 69.017 306.686 68.7796 306.026 68.671C305.368 68.5622 304.694 68.5842 304.044 68.7358C303.394 68.8874 302.78 69.1654 302.238 69.5542C301.142 70.3394 300.404 71.5278 300.184 72.858L298.46 83.312C295.692 83.2256 292.922 83.4678 290.21 84.034C285.968 84.9078 281.958 86.6616 278.436 89.1818C274.748 91.701 271.606 94.9366 269.196 98.696C266.666 102.643 264.984 107.075 264.262 111.708C262.886 118.715 263.94 125.981 267.252 132.308C270.772 138.604 275.998 143.777 282.332 147.23L287.434 150.124L282.814 178.124C280.898 177.265 279.372 175.724 278.532 173.8C277.826 172.171 277.318 170.463 277.02 168.712C276.808 167.448 276.208 166.282 275.302 165.375C274.396 164.469 273.23 163.867 271.966 163.654L267.698 162.952L261.684 161.952C260.792 161.806 259.878 161.859 259.008 162.107C258.136 162.354 257.332 162.79 256.65 163.384C255.966 163.978 255.424 164.715 255.058 165.542C254.692 166.37 254.514 167.267 254.534 168.172C254.576 170.956 254.958 173.724 255.676 176.414C255.952 177.44 256.268 178.436 256.62 179.406Z" stroke="#313553" stroke-width="0.687" stroke-linecap="round" stroke-linejoin="round"/>
<path d="M286.568 121.554C285.856 119.471 285.666 117.246 286.012 115.072C286.468 112.121 287.986 109.437 290.28 107.524C291.568 106.414 293.134 105.675 294.81 105.386L291.27 126.826C289.192 125.6 287.55 123.758 286.568 121.554Z" stroke="#313553" stroke-width="0.687" stroke-linecap="round" stroke-linejoin="round"/>
<path d="M296.502 177.57C295.39 178.225 294.198 178.733 292.956 179.082L296.79 155.862C298.45 157.108 299.826 158.692 300.826 160.51C302.128 163.159 302.532 166.161 301.974 169.06C301.78 170.804 301.184 172.48 300.236 173.956C299.286 175.433 298.008 176.669 296.502 177.57Z" stroke="#313553" stroke-width="0.687" stroke-linecap="round" stroke-linejoin="round"/>
<mask id="path-26-outside-1_12226_20915" maskUnits="userSpaceOnUse" x="213.671" y="158.499" width="36.6854" height="18.7081" fill="black">
<rect fill="white" x="213.671" y="158.499" width="36.6854" height="18.7081"/>
<path d="M217.341 175.907C217.167 175.942 217.025 175.916 216.917 175.829C216.819 175.749 216.755 175.635 216.725 175.487C216.691 175.321 216.713 175.158 216.789 174.997C216.867 174.845 216.982 174.74 217.134 174.682L217.173 174.674C217.269 174.655 217.326 174.689 217.344 174.776C217.356 174.837 217.354 174.896 217.339 174.954L217.311 175.286C217.307 175.314 217.303 175.338 217.298 175.357C217.301 175.375 217.305 175.392 217.308 175.409C217.323 175.479 217.364 175.507 217.434 175.493C217.478 175.484 217.512 175.473 217.536 175.459C217.946 175.239 218.34 174.946 218.72 174.579C219.11 174.219 219.465 173.824 219.787 173.396C220.109 172.968 220.376 172.56 220.588 172.172C220.897 171.637 221.19 171.047 221.468 170.401C221.745 169.755 221.984 169.094 222.183 168.418C222.38 167.734 222.512 167.085 222.578 166.473C222.594 166.279 222.589 166.121 222.564 165.999C222.488 165.624 222.25 165.477 221.849 165.559C221.666 165.596 221.433 165.702 221.151 165.877C220.877 166.05 220.594 166.266 220.302 166.525C220.016 166.774 219.759 167.048 219.529 167.349C219.218 167.739 218.944 168.157 218.708 168.604C218.479 169.041 218.31 169.443 218.203 169.809C218.09 170.15 218.054 170.42 218.095 170.621C218.143 170.856 218.293 170.949 218.546 170.897C218.938 170.818 219.314 170.678 219.673 170.479C220.032 170.279 220.325 170.07 220.553 169.851C220.638 169.779 220.716 169.736 220.786 169.722C220.864 169.706 220.893 169.714 220.872 169.745C220.874 169.754 220.853 169.786 220.81 169.84C220.749 169.898 220.63 170.008 220.455 170.17C220.279 170.333 220.096 170.484 219.906 170.622C219.474 170.954 219.045 171.164 218.617 171.25C217.902 171.395 217.496 171.228 217.399 170.748C217.367 170.591 217.376 170.385 217.424 170.131C217.507 169.733 217.683 169.279 217.952 168.771C218.228 168.252 218.56 167.74 218.948 167.235C219.287 166.803 219.643 166.432 220.016 166.12C220.397 165.807 220.764 165.556 221.115 165.367C221.467 165.177 221.765 165.058 222.01 165.009C222.245 164.961 222.449 165.006 222.622 165.143C222.804 165.279 222.923 165.486 222.98 165.765C222.997 165.852 223.007 165.946 223.009 166.045C223.011 166.145 223.007 166.259 222.997 166.388C222.922 167.093 222.786 167.81 222.589 168.54C222.39 169.261 222.152 169.949 221.877 170.604C221.608 171.248 221.313 171.812 220.993 172.294L220.983 172.31C220.51 173.023 220.002 173.693 219.457 174.321C218.912 174.948 218.313 175.437 217.657 175.788C217.569 175.842 217.463 175.882 217.341 175.907Z"/>
<path d="M222.024 175.326C221.963 175.338 221.904 175.337 221.846 175.321C221.708 175.267 221.625 175.171 221.597 175.031C221.584 174.97 221.586 174.911 221.601 174.853C221.633 174.738 221.724 174.583 221.875 174.389C222.026 174.195 222.194 174.016 222.379 173.852C222.443 173.721 222.492 173.602 222.525 173.495C222.558 173.389 222.58 173.298 222.592 173.223C222.718 172.816 222.854 172.435 223 172.078C223.146 171.722 223.296 171.388 223.45 171.075C223.211 170.969 223.064 170.781 223.009 170.511C222.964 170.284 222.973 170.042 223.039 169.783C223.079 169.621 223.121 169.517 223.167 169.471C223.221 169.424 223.258 169.408 223.279 169.421C223.296 169.418 223.312 169.451 223.326 169.521C223.339 169.582 223.334 169.669 223.311 169.783C223.289 169.851 223.288 169.937 223.309 170.042C223.353 170.26 223.491 170.422 223.721 170.53C223.827 170.336 223.92 170.145 224 169.956C224.257 169.432 224.503 168.947 224.74 168.499C224.974 168.043 225.206 167.62 225.435 167.228C225.731 166.715 226.065 166.216 226.439 165.732C226.813 165.248 227.211 164.836 227.632 164.496C228.054 164.157 228.482 163.943 228.918 163.855C229.232 163.791 229.493 163.802 229.701 163.887C229.917 163.97 230.049 164.129 230.097 164.365C230.136 164.556 230.109 164.803 230.015 165.103C229.913 165.405 229.759 165.745 229.554 166.122C229.358 166.498 229.106 166.912 228.798 167.364C228.395 167.972 227.949 168.548 227.46 169.092C226.978 169.625 226.485 170.079 225.98 170.454C225.481 170.818 225.001 171.047 224.539 171.14C224.26 171.197 224.02 171.2 223.82 171.15C223.658 171.473 223.511 171.798 223.377 172.125C223.242 172.442 223.12 172.758 223.01 173.07C223.014 173.133 222.978 173.267 222.901 173.473C223.274 173.162 223.742 172.872 224.305 172.604C224.868 172.336 225.464 172.097 226.093 171.888C226.731 171.677 227.334 171.518 227.903 171.412C228.26 171.34 228.548 171.372 228.767 171.51C228.992 171.636 229.128 171.813 229.174 172.04C229.179 172.066 229.181 172.097 229.179 172.134C229.186 172.169 229.19 172.209 229.19 172.254C229.209 172.396 229.199 172.525 229.159 172.642C229.13 172.766 229.08 172.835 229.011 172.849C228.915 172.868 228.827 172.75 228.748 172.494C228.641 172.279 228.524 172.126 228.396 172.034C228.269 171.942 228.057 171.926 227.76 171.986C225.689 172.423 224.02 173.17 222.754 174.225C222.713 174.379 222.668 174.515 222.619 174.633C222.57 174.752 222.523 174.853 222.476 174.935C222.349 175.16 222.198 175.29 222.024 175.326ZM224.671 170.583C225.334 170.448 226.01 170.066 226.699 169.437C227.159 169.017 227.583 168.554 227.971 168.049C228.365 167.534 228.705 167.016 228.99 166.495C229.284 165.973 229.501 165.498 229.641 165.07C229.731 164.797 229.761 164.587 229.731 164.439C229.692 164.247 229.546 164.177 229.293 164.228C229.206 164.246 229.104 164.28 228.987 164.331C228.452 164.557 227.863 165.053 227.219 165.819C226.795 166.322 226.386 166.859 225.993 167.429C225.607 167.988 225.248 168.546 224.916 169.103C224.592 169.65 224.308 170.157 224.067 170.623C224.278 170.635 224.48 170.622 224.671 170.583Z"/>
<path d="M229.419 173.828C229.358 173.841 229.299 173.839 229.241 173.823C229.103 173.77 229.02 173.673 228.992 173.534C228.979 173.473 228.981 173.413 228.997 173.356C229.028 173.24 229.119 173.086 229.27 172.892C229.421 172.698 229.589 172.518 229.774 172.354C229.838 172.223 229.887 172.104 229.92 171.998C229.953 171.891 229.975 171.8 229.987 171.725C230.113 171.319 230.249 170.937 230.395 170.581C230.541 170.225 230.691 169.89 230.845 169.577C230.606 169.472 230.459 169.283 230.404 169.013C230.359 168.787 230.368 168.544 230.434 168.286C230.474 168.123 230.516 168.019 230.562 167.974C230.616 167.927 230.653 167.91 230.674 167.924C230.691 167.92 230.707 167.953 230.721 168.023C230.734 168.084 230.729 168.171 230.706 168.285C230.684 168.353 230.683 168.439 230.704 168.544C230.748 168.762 230.886 168.925 231.116 169.032C231.222 168.839 231.315 168.647 231.395 168.459C231.652 167.935 231.898 167.449 232.135 167.002C232.369 166.546 232.601 166.122 232.83 165.731C233.126 165.217 233.46 164.718 233.834 164.234C234.208 163.75 234.606 163.338 235.027 162.999C235.449 162.659 235.877 162.445 236.313 162.357C236.627 162.293 236.888 162.304 237.096 162.389C237.312 162.472 237.444 162.632 237.492 162.867C237.531 163.059 237.504 163.305 237.41 163.605C237.308 163.907 237.154 164.247 236.949 164.624C236.753 165 236.501 165.414 236.194 165.867C235.79 166.475 235.344 167.051 234.855 167.595C234.373 168.128 233.88 168.582 233.375 168.956C232.877 169.32 232.396 169.549 231.934 169.643C231.655 169.699 231.415 169.703 231.215 169.652C231.053 169.976 230.906 170.3 230.772 170.627C230.637 170.945 230.515 171.26 230.405 171.573C230.409 171.635 230.373 171.77 230.296 171.976C230.669 171.664 231.137 171.375 231.7 171.106C232.263 170.838 232.859 170.599 233.488 170.39C234.126 170.179 234.729 170.021 235.298 169.915C235.655 169.842 235.943 169.875 236.162 170.012C236.387 170.139 236.523 170.316 236.569 170.542C236.574 170.569 236.576 170.6 236.574 170.637C236.581 170.671 236.585 170.712 236.585 170.757C236.604 170.898 236.594 171.027 236.554 171.144C236.525 171.268 236.475 171.337 236.406 171.351C236.31 171.371 236.222 171.252 236.143 170.996C236.036 170.782 235.919 170.629 235.791 170.536C235.664 170.444 235.452 170.428 235.155 170.488C233.084 170.926 231.415 171.672 230.149 172.727C230.108 172.881 230.063 173.017 230.014 173.136C229.965 173.255 229.918 173.355 229.871 173.437C229.744 173.663 229.593 173.793 229.419 173.828ZM232.066 169.085C232.729 168.951 233.405 168.569 234.094 167.939C234.554 167.519 234.978 167.057 235.366 166.552C235.76 166.036 236.1 165.518 236.385 164.997C236.679 164.475 236.896 164 237.036 163.572C237.126 163.3 237.156 163.089 237.126 162.941C237.087 162.749 236.941 162.679 236.688 162.73C236.601 162.748 236.499 162.782 236.382 162.833C235.847 163.059 235.258 163.556 234.614 164.321C234.19 164.825 233.781 165.361 233.388 165.931C233.002 166.49 232.643 167.049 232.311 167.606C231.987 168.153 231.703 168.659 231.462 169.126C231.673 169.138 231.875 169.124 232.066 169.085Z"/>
<path d="M237.926 172.31C237.464 172.403 237.079 172.341 236.772 172.121C236.455 171.904 236.25 171.564 236.157 171.102C236.134 170.989 236.12 170.878 236.117 170.77C236.104 170.664 236.098 170.565 236.098 170.474C236.105 169.701 236.329 168.771 236.771 167.683C237.059 166.953 237.407 166.274 237.816 165.647C238.233 165.018 238.685 164.491 239.17 164.066C239.665 163.639 240.169 163.373 240.684 163.269C240.98 163.209 241.215 163.248 241.388 163.385C241.559 163.514 241.672 163.713 241.727 163.984C241.79 164.298 241.785 164.675 241.711 165.117C241.629 165.56 241.502 165.99 241.332 166.405C241.169 166.811 240.991 167.119 240.798 167.33C240.77 167.372 240.735 167.398 240.691 167.407C240.656 167.414 240.634 167.395 240.625 167.352C240.606 167.256 240.648 167.148 240.75 167.027C240.848 166.926 240.942 166.766 241.034 166.547C241.133 166.319 241.219 166.07 241.292 165.801C241.373 165.53 241.428 165.265 241.457 165.005C241.495 164.743 241.496 164.525 241.461 164.351C241.376 163.932 241.124 163.765 240.706 163.85C239.913 164.011 239.207 164.471 238.59 165.232C238.174 165.733 237.816 166.296 237.515 166.92C237.222 167.533 236.988 168.147 236.813 168.764C236.647 169.378 236.549 169.947 236.519 170.471C236.506 170.673 236.518 170.87 236.557 171.062C236.633 171.437 236.802 171.711 237.064 171.885C237.318 172.061 237.624 172.094 237.983 171.985C238.642 171.788 239.329 171.372 240.045 170.737C240.513 170.315 240.956 169.858 241.374 169.365C241.791 168.872 242.17 168.369 242.511 167.855C242.85 167.332 243.136 166.839 243.368 166.374L242.759 166.593C242.573 166.658 242.417 166.721 242.294 166.783C242.177 166.833 242.099 166.872 242.058 166.898C242.043 166.91 242.022 166.919 241.996 166.925C241.943 166.935 241.909 166.901 241.893 166.823C241.878 166.744 241.885 166.647 241.916 166.532C241.956 166.415 242.007 166.332 242.07 166.283C242.281 166.113 242.825 165.908 243.702 165.667C243.997 165.153 244.305 164.637 244.627 164.118C244.967 163.559 245.252 163.084 245.482 162.692C245.711 162.301 245.911 161.943 246.081 161.618C246.258 161.282 246.425 160.94 246.581 160.591C246.631 160.481 246.691 160.419 246.761 160.405C246.814 160.394 246.845 160.415 246.856 160.467C246.866 160.519 246.858 160.567 246.83 160.609C246.618 161.087 246.392 161.56 246.15 162.026C245.909 162.492 245.638 162.992 245.337 163.525C245.044 164.047 244.71 164.641 244.337 165.307L244.206 165.537L244.803 165.389L245.946 165.117C245.94 165.136 245.964 165.05 246.016 164.858C246.066 164.657 246.14 164.352 246.239 163.941C246.38 163.386 246.503 162.894 246.607 162.465C246.717 162.025 246.804 161.648 246.868 161.336C247.006 160.718 247.058 160.299 247.022 160.079C247.008 159.964 247.047 159.866 247.139 159.783C247.231 159.701 247.343 159.647 247.474 159.62C247.57 159.601 247.66 159.601 247.746 159.62C247.838 159.628 247.898 159.653 247.924 159.693C247.984 159.762 247.961 159.985 247.855 160.36C247.789 160.618 247.705 160.917 247.601 161.256C247.497 161.594 247.378 161.972 247.245 162.39C247.061 162.962 246.905 163.466 246.775 163.901C246.654 164.334 246.56 164.698 246.492 164.993L247.489 164.737L247.528 164.729C247.606 164.713 247.651 164.731 247.662 164.783C247.669 164.818 247.654 164.857 247.617 164.901C247.581 164.945 247.529 164.978 247.461 165.001L246.417 165.294C246.412 165.313 246.385 165.428 246.337 165.637C246.288 165.846 246.218 166.147 246.124 166.538C245.941 167.337 245.902 167.994 246.006 168.509C246.077 168.857 246.243 169.005 246.504 168.952C246.574 168.938 246.659 168.885 246.758 168.792C246.868 168.706 246.966 168.609 247.053 168.501C247.149 168.391 247.216 168.295 247.254 168.215C247.297 168.116 247.349 168.06 247.41 168.047C247.445 168.04 247.466 168.054 247.473 168.089C247.482 168.133 247.459 168.196 247.403 168.28C247.335 168.394 247.244 168.526 247.129 168.676C247.014 168.826 246.896 168.959 246.774 169.075C246.652 169.19 246.544 169.262 246.45 169.29C245.899 169.438 245.569 169.242 245.46 168.701C245.394 168.378 245.398 167.992 245.47 167.542C245.551 167.09 245.657 166.56 245.788 165.952L245.902 165.439C245.611 165.525 245.219 165.673 244.725 165.882C244.549 165.954 244.39 166.018 244.247 166.074C244.111 166.12 243.997 166.161 243.904 166.198C243.508 166.886 243.07 167.569 242.59 168.247C242.11 168.925 241.607 169.554 241.08 170.133C240.561 170.71 240.032 171.189 239.492 171.571C238.963 171.959 238.441 172.205 237.926 172.31Z"/>
</mask>
<path d="M217.341 175.907C217.167 175.942 217.025 175.916 216.917 175.829C216.819 175.749 216.755 175.635 216.725 175.487C216.691 175.321 216.713 175.158 216.789 174.997C216.867 174.845 216.982 174.74 217.134 174.682L217.173 174.674C217.269 174.655 217.326 174.689 217.344 174.776C217.356 174.837 217.354 174.896 217.339 174.954L217.311 175.286C217.307 175.314 217.303 175.338 217.298 175.357C217.301 175.375 217.305 175.392 217.308 175.409C217.323 175.479 217.364 175.507 217.434 175.493C217.478 175.484 217.512 175.473 217.536 175.459C217.946 175.239 218.34 174.946 218.72 174.579C219.11 174.219 219.465 173.824 219.787 173.396C220.109 172.968 220.376 172.56 220.588 172.172C220.897 171.637 221.19 171.047 221.468 170.401C221.745 169.755 221.984 169.094 222.183 168.418C222.38 167.734 222.512 167.085 222.578 166.473C222.594 166.279 222.589 166.121 222.564 165.999C222.488 165.624 222.25 165.477 221.849 165.559C221.666 165.596 221.433 165.702 221.151 165.877C220.877 166.05 220.594 166.266 220.302 166.525C220.016 166.774 219.759 167.048 219.529 167.349C219.218 167.739 218.944 168.157 218.708 168.604C218.479 169.041 218.31 169.443 218.203 169.809C218.09 170.15 218.054 170.42 218.095 170.621C218.143 170.856 218.293 170.949 218.546 170.897C218.938 170.818 219.314 170.678 219.673 170.479C220.032 170.279 220.325 170.07 220.553 169.851C220.638 169.779 220.716 169.736 220.786 169.722C220.864 169.706 220.893 169.714 220.872 169.745C220.874 169.754 220.853 169.786 220.81 169.84C220.749 169.898 220.63 170.008 220.455 170.17C220.279 170.333 220.096 170.484 219.906 170.622C219.474 170.954 219.045 171.164 218.617 171.25C217.902 171.395 217.496 171.228 217.399 170.748C217.367 170.591 217.376 170.385 217.424 170.131C217.507 169.733 217.683 169.279 217.952 168.771C218.228 168.252 218.56 167.74 218.948 167.235C219.287 166.803 219.643 166.432 220.016 166.12C220.397 165.807 220.764 165.556 221.115 165.367C221.467 165.177 221.765 165.058 222.01 165.009C222.245 164.961 222.449 165.006 222.622 165.143C222.804 165.279 222.923 165.486 222.98 165.765C222.997 165.852 223.007 165.946 223.009 166.045C223.011 166.145 223.007 166.259 222.997 166.388C222.922 167.093 222.786 167.81 222.589 168.54C222.39 169.261 222.152 169.949 221.877 170.604C221.608 171.248 221.313 171.812 220.993 172.294L220.983 172.31C220.51 173.023 220.002 173.693 219.457 174.321C218.912 174.948 218.313 175.437 217.657 175.788C217.569 175.842 217.463 175.882 217.341 175.907Z" fill="#313553"/>
<path d="M222.024 175.326C221.963 175.338 221.904 175.337 221.846 175.321C221.708 175.267 221.625 175.171 221.597 175.031C221.584 174.97 221.586 174.911 221.601 174.853C221.633 174.738 221.724 174.583 221.875 174.389C222.026 174.195 222.194 174.016 222.379 173.852C222.443 173.721 222.492 173.602 222.525 173.495C222.558 173.389 222.58 173.298 222.592 173.223C222.718 172.816 222.854 172.435 223 172.078C223.146 171.722 223.296 171.388 223.45 171.075C223.211 170.969 223.064 170.781 223.009 170.511C222.964 170.284 222.973 170.042 223.039 169.783C223.079 169.621 223.121 169.517 223.167 169.471C223.221 169.424 223.258 169.408 223.279 169.421C223.296 169.418 223.312 169.451 223.326 169.521C223.339 169.582 223.334 169.669 223.311 169.783C223.289 169.851 223.288 169.937 223.309 170.042C223.353 170.26 223.491 170.422 223.721 170.53C223.827 170.336 223.92 170.145 224 169.956C224.257 169.432 224.503 168.947 224.74 168.499C224.974 168.043 225.206 167.62 225.435 167.228C225.731 166.715 226.065 166.216 226.439 165.732C226.813 165.248 227.211 164.836 227.632 164.496C228.054 164.157 228.482 163.943 228.918 163.855C229.232 163.791 229.493 163.802 229.701 163.887C229.917 163.97 230.049 164.129 230.097 164.365C230.136 164.556 230.109 164.803 230.015 165.103C229.913 165.405 229.759 165.745 229.554 166.122C229.358 166.498 229.106 166.912 228.798 167.364C228.395 167.972 227.949 168.548 227.46 169.092C226.978 169.625 226.485 170.079 225.98 170.454C225.481 170.818 225.001 171.047 224.539 171.14C224.26 171.197 224.02 171.2 223.82 171.15C223.658 171.473 223.511 171.798 223.377 172.125C223.242 172.442 223.12 172.758 223.01 173.07C223.014 173.133 222.978 173.267 222.901 173.473C223.274 173.162 223.742 172.872 224.305 172.604C224.868 172.336 225.464 172.097 226.093 171.888C226.731 171.677 227.334 171.518 227.903 171.412C228.26 171.34 228.548 171.372 228.767 171.51C228.992 171.636 229.128 171.813 229.174 172.04C229.179 172.066 229.181 172.097 229.179 172.134C229.186 172.169 229.19 172.209 229.19 172.254C229.209 172.396 229.199 172.525 229.159 172.642C229.13 172.766 229.08 172.835 229.011 172.849C228.915 172.868 228.827 172.75 228.748 172.494C228.641 172.279 228.524 172.126 228.396 172.034C228.269 171.942 228.057 171.926 227.76 171.986C225.689 172.423 224.02 173.17 222.754 174.225C222.713 174.379 222.668 174.515 222.619 174.633C222.57 174.752 222.523 174.853 222.476 174.935C222.349 175.16 222.198 175.29 222.024 175.326ZM224.671 170.583C225.334 170.448 226.01 170.066 226.699 169.437C227.159 169.017 227.583 168.554 227.971 168.049C228.365 167.534 228.705 167.016 228.99 166.495C229.284 165.973 229.501 165.498 229.641 165.07C229.731 164.797 229.761 164.587 229.731 164.439C229.692 164.247 229.546 164.177 229.293 164.228C229.206 164.246 229.104 164.28 228.987 164.331C228.452 164.557 227.863 165.053 227.219 165.819C226.795 166.322 226.386 166.859 225.993 167.429C225.607 167.988 225.248 168.546 224.916 169.103C224.592 169.65 224.308 170.157 224.067 170.623C224.278 170.635 224.48 170.622 224.671 170.583Z" fill="#313553"/>
<path d="M229.419 173.828C229.358 173.841 229.299 173.839 229.241 173.823C229.103 173.77 229.02 173.673 228.992 173.534C228.979 173.473 228.981 173.413 228.997 173.356C229.028 173.24 229.119 173.086 229.27 172.892C229.421 172.698 229.589 172.518 229.774 172.354C229.838 172.223 229.887 172.104 229.92 171.998C229.953 171.891 229.975 171.8 229.987 171.725C230.113 171.319 230.249 170.937 230.395 170.581C230.541 170.225 230.691 169.89 230.845 169.577C230.606 169.472 230.459 169.283 230.404 169.013C230.359 168.787 230.368 168.544 230.434 168.286C230.474 168.123 230.516 168.019 230.562 167.974C230.616 167.927 230.653 167.91 230.674 167.924C230.691 167.92 230.707 167.953 230.721 168.023C230.734 168.084 230.729 168.171 230.706 168.285C230.684 168.353 230.683 168.439 230.704 168.544C230.748 168.762 230.886 168.925 231.116 169.032C231.222 168.839 231.315 168.647 231.395 168.459C231.652 167.935 231.898 167.449 232.135 167.002C232.369 166.546 232.601 166.122 232.83 165.731C233.126 165.217 233.46 164.718 233.834 164.234C234.208 163.75 234.606 163.338 235.027 162.999C235.449 162.659 235.877 162.445 236.313 162.357C236.627 162.293 236.888 162.304 237.096 162.389C237.312 162.472 237.444 162.632 237.492 162.867C237.531 163.059 237.504 163.305 237.41 163.605C237.308 163.907 237.154 164.247 236.949 164.624C236.753 165 236.501 165.414 236.194 165.867C235.79 166.475 235.344 167.051 234.855 167.595C234.373 168.128 233.88 168.582 233.375 168.956C232.877 169.32 232.396 169.549 231.934 169.643C231.655 169.699 231.415 169.703 231.215 169.652C231.053 169.976 230.906 170.3 230.772 170.627C230.637 170.945 230.515 171.26 230.405 171.573C230.409 171.635 230.373 171.77 230.296 171.976C230.669 171.664 231.137 171.375 231.7 171.106C232.263 170.838 232.859 170.599 233.488 170.39C234.126 170.179 234.729 170.021 235.298 169.915C235.655 169.842 235.943 169.875 236.162 170.012C236.387 170.139 236.523 170.316 236.569 170.542C236.574 170.569 236.576 170.6 236.574 170.637C236.581 170.671 236.585 170.712 236.585 170.757C236.604 170.898 236.594 171.027 236.554 171.144C236.525 171.268 236.475 171.337 236.406 171.351C236.31 171.371 236.222 171.252 236.143 170.996C236.036 170.782 235.919 170.629 235.791 170.536C235.664 170.444 235.452 170.428 235.155 170.488C233.084 170.926 231.415 171.672 230.149 172.727C230.108 172.881 230.063 173.017 230.014 173.136C229.965 173.255 229.918 173.355 229.871 173.437C229.744 173.663 229.593 173.793 229.419 173.828ZM232.066 169.085C232.729 168.951 233.405 168.569 234.094 167.939C234.554 167.519 234.978 167.057 235.366 166.552C235.76 166.036 236.1 165.518 236.385 164.997C236.679 164.475 236.896 164 237.036 163.572C237.126 163.3 237.156 163.089 237.126 162.941C237.087 162.749 236.941 162.679 236.688 162.73C236.601 162.748 236.499 162.782 236.382 162.833C235.847 163.059 235.258 163.556 234.614 164.321C234.19 164.825 233.781 165.361 233.388 165.931C233.002 166.49 232.643 167.049 232.311 167.606C231.987 168.153 231.703 168.659 231.462 169.126C231.673 169.138 231.875 169.124 232.066 169.085Z" fill="#313553"/>
<path d="M237.926 172.31C237.464 172.403 237.079 172.341 236.772 172.121C236.455 171.904 236.25 171.564 236.157 171.102C236.134 170.989 236.12 170.878 236.117 170.77C236.104 170.664 236.098 170.565 236.098 170.474C236.105 169.701 236.329 168.771 236.771 167.683C237.059 166.953 237.407 166.274 237.816 165.647C238.233 165.018 238.685 164.491 239.17 164.066C239.665 163.639 240.169 163.373 240.684 163.269C240.98 163.209 241.215 163.248 241.388 163.385C241.559 163.514 241.672 163.713 241.727 163.984C241.79 164.298 241.785 164.675 241.711 165.117C241.629 165.56 241.502 165.99 241.332 166.405C241.169 166.811 240.991 167.119 240.798 167.33C240.77 167.372 240.735 167.398 240.691 167.407C240.656 167.414 240.634 167.395 240.625 167.352C240.606 167.256 240.648 167.148 240.75 167.027C240.848 166.926 240.942 166.766 241.034 166.547C241.133 166.319 241.219 166.07 241.292 165.801C241.373 165.53 241.428 165.265 241.457 165.005C241.495 164.743 241.496 164.525 241.461 164.351C241.376 163.932 241.124 163.765 240.706 163.85C239.913 164.011 239.207 164.471 238.59 165.232C238.174 165.733 237.816 166.296 237.515 166.92C237.222 167.533 236.988 168.147 236.813 168.764C236.647 169.378 236.549 169.947 236.519 170.471C236.506 170.673 236.518 170.87 236.557 171.062C236.633 171.437 236.802 171.711 237.064 171.885C237.318 172.061 237.624 172.094 237.983 171.985C238.642 171.788 239.329 171.372 240.045 170.737C240.513 170.315 240.956 169.858 241.374 169.365C241.791 168.872 242.17 168.369 242.511 167.855C242.85 167.332 243.136 166.839 243.368 166.374L242.759 166.593C242.573 166.658 242.417 166.721 242.294 166.783C242.177 166.833 242.099 166.872 242.058 166.898C242.043 166.91 242.022 166.919 241.996 166.925C241.943 166.935 241.909 166.901 241.893 166.823C241.878 166.744 241.885 166.647 241.916 166.532C241.956 166.415 242.007 166.332 242.07 166.283C242.281 166.113 242.825 165.908 243.702 165.667C243.997 165.153 244.305 164.637 244.627 164.118C244.967 163.559 245.252 163.084 245.482 162.692C245.711 162.301 245.911 161.943 246.081 161.618C246.258 161.282 246.425 160.94 246.581 160.591C246.631 160.481 246.691 160.419 246.761 160.405C246.814 160.394 246.845 160.415 246.856 160.467C246.866 160.519 246.858 160.567 246.83 160.609C246.618 161.087 246.392 161.56 246.15 162.026C245.909 162.492 245.638 162.992 245.337 163.525C245.044 164.047 244.71 164.641 244.337 165.307L244.206 165.537L244.803 165.389L245.946 165.117C245.94 165.136 245.964 165.05 246.016 164.858C246.066 164.657 246.14 164.352 246.239 163.941C246.38 163.386 246.503 162.894 246.607 162.465C246.717 162.025 246.804 161.648 246.868 161.336C247.006 160.718 247.058 160.299 247.022 160.079C247.008 159.964 247.047 159.866 247.139 159.783C247.231 159.701 247.343 159.647 247.474 159.62C247.57 159.601 247.66 159.601 247.746 159.62C247.838 159.628 247.898 159.653 247.924 159.693C247.984 159.762 247.961 159.985 247.855 160.36C247.789 160.618 247.705 160.917 247.601 161.256C247.497 161.594 247.378 161.972 247.245 162.39C247.061 162.962 246.905 163.466 246.775 163.901C246.654 164.334 246.56 164.698 246.492 164.993L247.489 164.737L247.528 164.729C247.606 164.713 247.651 164.731 247.662 164.783C247.669 164.818 247.654 164.857 247.617 164.901C247.581 164.945 247.529 164.978 247.461 165.001L246.417 165.294C246.412 165.313 246.385 165.428 246.337 165.637C246.288 165.846 246.218 166.147 246.124 166.538C245.941 167.337 245.902 167.994 246.006 168.509C246.077 168.857 246.243 169.005 246.504 168.952C246.574 168.938 246.659 168.885 246.758 168.792C246.868 168.706 246.966 168.609 247.053 168.501C247.149 168.391 247.216 168.295 247.254 168.215C247.297 168.116 247.349 168.06 247.41 168.047C247.445 168.04 247.466 168.054 247.473 168.089C247.482 168.133 247.459 168.196 247.403 168.28C247.335 168.394 247.244 168.526 247.129 168.676C247.014 168.826 246.896 168.959 246.774 169.075C246.652 169.19 246.544 169.262 246.45 169.29C245.899 169.438 245.569 169.242 245.46 168.701C245.394 168.378 245.398 167.992 245.47 167.542C245.551 167.09 245.657 166.56 245.788 165.952L245.902 165.439C245.611 165.525 245.219 165.673 244.725 165.882C244.549 165.954 244.39 166.018 244.247 166.074C244.111 166.12 243.997 166.161 243.904 166.198C243.508 166.886 243.07 167.569 242.59 168.247C242.11 168.925 241.607 169.554 241.08 170.133C240.561 170.71 240.032 171.189 239.492 171.571C238.963 171.959 238.441 172.205 237.926 172.31Z" fill="#313553"/>
<path d="M217.341 175.907C217.167 175.942 217.025 175.916 216.917 175.829C216.819 175.749 216.755 175.635 216.725 175.487C216.691 175.321 216.713 175.158 216.789 174.997C216.867 174.845 216.982 174.74 217.134 174.682L217.173 174.674C217.269 174.655 217.326 174.689 217.344 174.776C217.356 174.837 217.354 174.896 217.339 174.954L217.311 175.286C217.307 175.314 217.303 175.338 217.298 175.357C217.301 175.375 217.305 175.392 217.308 175.409C217.323 175.479 217.364 175.507 217.434 175.493C217.478 175.484 217.512 175.473 217.536 175.459C217.946 175.239 218.34 174.946 218.72 174.579C219.11 174.219 219.465 173.824 219.787 173.396C220.109 172.968 220.376 172.56 220.588 172.172C220.897 171.637 221.19 171.047 221.468 170.401C221.745 169.755 221.984 169.094 222.183 168.418C222.38 167.734 222.512 167.085 222.578 166.473C222.594 166.279 222.589 166.121 222.564 165.999C222.488 165.624 222.25 165.477 221.849 165.559C221.666 165.596 221.433 165.702 221.151 165.877C220.877 166.05 220.594 166.266 220.302 166.525C220.016 166.774 219.759 167.048 219.529 167.349C219.218 167.739 218.944 168.157 218.708 168.604C218.479 169.041 218.31 169.443 218.203 169.809C218.09 170.15 218.054 170.42 218.095 170.621C218.143 170.856 218.293 170.949 218.546 170.897C218.938 170.818 219.314 170.678 219.673 170.479C220.032 170.279 220.325 170.07 220.553 169.851C220.638 169.779 220.716 169.736 220.786 169.722C220.864 169.706 220.893 169.714 220.872 169.745C220.874 169.754 220.853 169.786 220.81 169.84C220.749 169.898 220.63 170.008 220.455 170.17C220.279 170.333 220.096 170.484 219.906 170.622C219.474 170.954 219.045 171.164 218.617 171.25C217.902 171.395 217.496 171.228 217.399 170.748C217.367 170.591 217.376 170.385 217.424 170.131C217.507 169.733 217.683 169.279 217.952 168.771C218.228 168.252 218.56 167.74 218.948 167.235C219.287 166.803 219.643 166.432 220.016 166.12C220.397 165.807 220.764 165.556 221.115 165.367C221.467 165.177 221.765 165.058 222.01 165.009C222.245 164.961 222.449 165.006 222.622 165.143C222.804 165.279 222.923 165.486 222.98 165.765C222.997 165.852 223.007 165.946 223.009 166.045C223.011 166.145 223.007 166.259 222.997 166.388C222.922 167.093 222.786 167.81 222.589 168.54C222.39 169.261 222.152 169.949 221.877 170.604C221.608 171.248 221.313 171.812 220.993 172.294L220.983 172.31C220.51 173.023 220.002 173.693 219.457 174.321C218.912 174.948 218.313 175.437 217.657 175.788C217.569 175.842 217.463 175.882 217.341 175.907Z" stroke="#313553" stroke-width="0.4" mask="url(#path-26-outside-1_12226_20915)"/>
<path d="M222.024 175.326C221.963 175.338 221.904 175.337 221.846 175.321C221.708 175.267 221.625 175.171 221.597 175.031C221.584 174.97 221.586 174.911 221.601 174.853C221.633 174.738 221.724 174.583 221.875 174.389C222.026 174.195 222.194 174.016 222.379 173.852C222.443 173.721 222.492 173.602 222.525 173.495C222.558 173.389 222.58 173.298 222.592 173.223C222.718 172.816 222.854 172.435 223 172.078C223.146 171.722 223.296 171.388 223.45 171.075C223.211 170.969 223.064 170.781 223.009 170.511C222.964 170.284 222.973 170.042 223.039 169.783C223.079 169.621 223.121 169.517 223.167 169.471C223.221 169.424 223.258 169.408 223.279 169.421C223.296 169.418 223.312 169.451 223.326 169.521C223.339 169.582 223.334 169.669 223.311 169.783C223.289 169.851 223.288 169.937 223.309 170.042C223.353 170.26 223.491 170.422 223.721 170.53C223.827 170.336 223.92 170.145 224 169.956C224.257 169.432 224.503 168.947 224.74 168.499C224.974 168.043 225.206 167.62 225.435 167.228C225.731 166.715 226.065 166.216 226.439 165.732C226.813 165.248 227.211 164.836 227.632 164.496C228.054 164.157 228.482 163.943 228.918 163.855C229.232 163.791 229.493 163.802 229.701 163.887C229.917 163.97 230.049 164.129 230.097 164.365C230.136 164.556 230.109 164.803 230.015 165.103C229.913 165.405 229.759 165.745 229.554 166.122C229.358 166.498 229.106 166.912 228.798 167.364C228.395 167.972 227.949 168.548 227.46 169.092C226.978 169.625 226.485 170.079 225.98 170.454C225.481 170.818 225.001 171.047 224.539 171.14C224.26 171.197 224.02 171.2 223.82 171.15C223.658 171.473 223.511 171.798 223.377 172.125C223.242 172.442 223.12 172.758 223.01 173.07C223.014 173.133 222.978 173.267 222.901 173.473C223.274 173.162 223.742 172.872 224.305 172.604C224.868 172.336 225.464 172.097 226.093 171.888C226.731 171.677 227.334 171.518 227.903 171.412C228.26 171.34 228.548 171.372 228.767 171.51C228.992 171.636 229.128 171.813 229.174 172.04C229.179 172.066 229.181 172.097 229.179 172.134C229.186 172.169 229.19 172.209 229.19 172.254C229.209 172.396 229.199 172.525 229.159 172.642C229.13 172.766 229.08 172.835 229.011 172.849C228.915 172.868 228.827 172.75 228.748 172.494C228.641 172.279 228.524 172.126 228.396 172.034C228.269 171.942 228.057 171.926 227.76 171.986C225.689 172.423 224.02 173.17 222.754 174.225C222.713 174.379 222.668 174.515 222.619 174.633C222.57 174.752 222.523 174.853 222.476 174.935C222.349 175.16 222.198 175.29 222.024 175.326ZM224.671 170.583C225.334 170.448 226.01 170.066 226.699 169.437C227.159 169.017 227.583 168.554 227.971 168.049C228.365 167.534 228.705 167.016 228.99 166.495C229.284 165.973 229.501 165.498 229.641 165.07C229.731 164.797 229.761 164.587 229.731 164.439C229.692 164.247 229.546 164.177 229.293 164.228C229.206 164.246 229.104 164.28 228.987 164.331C228.452 164.557 227.863 165.053 227.219 165.819C226.795 166.322 226.386 166.859 225.993 167.429C225.607 167.988 225.248 168.546 224.916 169.103C224.592 169.65 224.308 170.157 224.067 170.623C224.278 170.635 224.48 170.622 224.671 170.583Z" stroke="#313553" stroke-width="0.4" mask="url(#path-26-outside-1_12226_20915)"/>
<path d="M229.419 173.828C229.358 173.841 229.299 173.839 229.241 173.823C229.103 173.77 229.02 173.673 228.992 173.534C228.979 173.473 228.981 173.413 228.997 173.356C229.028 173.24 229.119 173.086 229.27 172.892C229.421 172.698 229.589 172.518 229.774 172.354C229.838 172.223 229.887 172.104 229.92 171.998C229.953 171.891 229.975 171.8 229.987 171.725C230.113 171.319 230.249 170.937 230.395 170.581C230.541 170.225 230.691 169.89 230.845 169.577C230.606 169.472 230.459 169.283 230.404 169.013C230.359 168.787 230.368 168.544 230.434 168.286C230.474 168.123 230.516 168.019 230.562 167.974C230.616 167.927 230.653 167.91 230.674 167.924C230.691 167.92 230.707 167.953 230.721 168.023C230.734 168.084 230.729 168.171 230.706 168.285C230.684 168.353 230.683 168.439 230.704 168.544C230.748 168.762 230.886 168.925 231.116 169.032C231.222 168.839 231.315 168.647 231.395 168.459C231.652 167.935 231.898 167.449 232.135 167.002C232.369 166.546 232.601 166.122 232.83 165.731C233.126 165.217 233.46 164.718 233.834 164.234C234.208 163.75 234.606 163.338 235.027 162.999C235.449 162.659 235.877 162.445 236.313 162.357C236.627 162.293 236.888 162.304 237.096 162.389C237.312 162.472 237.444 162.632 237.492 162.867C237.531 163.059 237.504 163.305 237.41 163.605C237.308 163.907 237.154 164.247 236.949 164.624C236.753 165 236.501 165.414 236.194 165.867C235.79 166.475 235.344 167.051 234.855 167.595C234.373 168.128 233.88 168.582 233.375 168.956C232.877 169.32 232.396 169.549 231.934 169.643C231.655 169.699 231.415 169.703 231.215 169.652C231.053 169.976 230.906 170.3 230.772 170.627C230.637 170.945 230.515 171.26 230.405 171.573C230.409 171.635 230.373 171.77 230.296 171.976C230.669 171.664 231.137 171.375 231.7 171.106C232.263 170.838 232.859 170.599 233.488 170.39C234.126 170.179 234.729 170.021 235.298 169.915C235.655 169.842 235.943 169.875 236.162 170.012C236.387 170.139 236.523 170.316 236.569 170.542C236.574 170.569 236.576 170.6 236.574 170.637C236.581 170.671 236.585 170.712 236.585 170.757C236.604 170.898 236.594 171.027 236.554 171.144C236.525 171.268 236.475 171.337 236.406 171.351C236.31 171.371 236.222 171.252 236.143 170.996C236.036 170.782 235.919 170.629 235.791 170.536C235.664 170.444 235.452 170.428 235.155 170.488C233.084 170.926 231.415 171.672 230.149 172.727C230.108 172.881 230.063 173.017 230.014 173.136C229.965 173.255 229.918 173.355 229.871 173.437C229.744 173.663 229.593 173.793 229.419 173.828ZM232.066 169.085C232.729 168.951 233.405 168.569 234.094 167.939C234.554 167.519 234.978 167.057 235.366 166.552C235.76 166.036 236.1 165.518 236.385 164.997C236.679 164.475 236.896 164 237.036 163.572C237.126 163.3 237.156 163.089 237.126 162.941C237.087 162.749 236.941 162.679 236.688 162.73C236.601 162.748 236.499 162.782 236.382 162.833C235.847 163.059 235.258 163.556 234.614 164.321C234.19 164.825 233.781 165.361 233.388 165.931C233.002 166.49 232.643 167.049 232.311 167.606C231.987 168.153 231.703 168.659 231.462 169.126C231.673 169.138 231.875 169.124 232.066 169.085Z" stroke="#313553" stroke-width="0.4" mask="url(#path-26-outside-1_12226_20915)"/>
<path d="M237.926 172.31C237.464 172.403 237.079 172.341 236.772 172.121C236.455 171.904 236.25 171.564 236.157 171.102C236.134 170.989 236.12 170.878 236.117 170.77C236.104 170.664 236.098 170.565 236.098 170.474C236.105 169.701 236.329 168.771 236.771 167.683C237.059 166.953 237.407 166.274 237.816 165.647C238.233 165.018 238.685 164.491 239.17 164.066C239.665 163.639 240.169 163.373 240.684 163.269C240.98 163.209 241.215 163.248 241.388 163.385C241.559 163.514 241.672 163.713 241.727 163.984C241.79 164.298 241.785 164.675 241.711 165.117C241.629 165.56 241.502 165.99 241.332 166.405C241.169 166.811 240.991 167.119 240.798 167.33C240.77 167.372 240.735 167.398 240.691 167.407C240.656 167.414 240.634 167.395 240.625 167.352C240.606 167.256 240.648 167.148 240.75 167.027C240.848 166.926 240.942 166.766 241.034 166.547C241.133 166.319 241.219 166.07 241.292 165.801C241.373 165.53 241.428 165.265 241.457 165.005C241.495 164.743 241.496 164.525 241.461 164.351C241.376 163.932 241.124 163.765 240.706 163.85C239.913 164.011 239.207 164.471 238.59 165.232C238.174 165.733 237.816 166.296 237.515 166.92C237.222 167.533 236.988 168.147 236.813 168.764C236.647 169.378 236.549 169.947 236.519 170.471C236.506 170.673 236.518 170.87 236.557 171.062C236.633 171.437 236.802 171.711 237.064 171.885C237.318 172.061 237.624 172.094 237.983 171.985C238.642 171.788 239.329 171.372 240.045 170.737C240.513 170.315 240.956 169.858 241.374 169.365C241.791 168.872 242.17 168.369 242.511 167.855C242.85 167.332 243.136 166.839 243.368 166.374L242.759 166.593C242.573 166.658 242.417 166.721 242.294 166.783C242.177 166.833 242.099 166.872 242.058 166.898C242.043 166.91 242.022 166.919 241.996 166.925C241.943 166.935 241.909 166.901 241.893 166.823C241.878 166.744 241.885 166.647 241.916 166.532C241.956 166.415 242.007 166.332 242.07 166.283C242.281 166.113 242.825 165.908 243.702 165.667C243.997 165.153 244.305 164.637 244.627 164.118C244.967 163.559 245.252 163.084 245.482 162.692C245.711 162.301 245.911 161.943 246.081 161.618C246.258 161.282 246.425 160.94 246.581 160.591C246.631 160.481 246.691 160.419 246.761 160.405C246.814 160.394 246.845 160.415 246.856 160.467C246.866 160.519 246.858 160.567 246.83 160.609C246.618 161.087 246.392 161.56 246.15 162.026C245.909 162.492 245.638 162.992 245.337 163.525C245.044 164.047 244.71 164.641 244.337 165.307L244.206 165.537L244.803 165.389L245.946 165.117C245.94 165.136 245.964 165.05 246.016 164.858C246.066 164.657 246.14 164.352 246.239 163.941C246.38 163.386 246.503 162.894 246.607 162.465C246.717 162.025 246.804 161.648 246.868 161.336C247.006 160.718 247.058 160.299 247.022 160.079C247.008 159.964 247.047 159.866 247.139 159.783C247.231 159.701 247.343 159.647 247.474 159.62C247.57 159.601 247.66 159.601 247.746 159.62C247.838 159.628 247.898 159.653 247.924 159.693C247.984 159.762 247.961 159.985 247.855 160.36C247.789 160.618 247.705 160.917 247.601 161.256C247.497 161.594 247.378 161.972 247.245 162.39C247.061 162.962 246.905 163.466 246.775 163.901C246.654 164.334 246.56 164.698 246.492 164.993L247.489 164.737L247.528 164.729C247.606 164.713 247.651 164.731 247.662 164.783C247.669 164.818 247.654 164.857 247.617 164.901C247.581 164.945 247.529 164.978 247.461 165.001L246.417 165.294C246.412 165.313 246.385 165.428 246.337 165.637C246.288 165.846 246.218 166.147 246.124 166.538C245.941 167.337 245.902 167.994 246.006 168.509C246.077 168.857 246.243 169.005 246.504 168.952C246.574 168.938 246.659 168.885 246.758 168.792C246.868 168.706 246.966 168.609 247.053 168.501C247.149 168.391 247.216 168.295 247.254 168.215C247.297 168.116 247.349 168.06 247.41 168.047C247.445 168.04 247.466 168.054 247.473 168.089C247.482 168.133 247.459 168.196 247.403 168.28C247.335 168.394 247.244 168.526 247.129 168.676C247.014 168.826 246.896 168.959 246.774 169.075C246.652 169.19 246.544 169.262 246.45 169.29C245.899 169.438 245.569 169.242 245.46 168.701C245.394 168.378 245.398 167.992 245.47 167.542C245.551 167.09 245.657 166.56 245.788 165.952L245.902 165.439C245.611 165.525 245.219 165.673 244.725 165.882C244.549 165.954 244.39 166.018 244.247 166.074C244.111 166.12 243.997 166.161 243.904 166.198C243.508 166.886 243.07 167.569 242.59 168.247C242.11 168.925 241.607 169.554 241.08 170.133C240.561 170.71 240.032 171.189 239.492 171.571C238.963 171.959 238.441 172.205 237.926 172.31Z" stroke="#313553" stroke-width="0.4" mask="url(#path-26-outside-1_12226_20915)"/>
<defs>
<linearGradient id="paint0_linear_12226_20915" x1="243" y1="0" x2="243" y2="275" gradientUnits="userSpaceOnUse">
<stop stop-color="#47F8D8" stop-opacity="0.44"/>
<stop offset="1" stop-color="#47F8D8" stop-opacity="0"/>
</linearGradient>
</defs>
</svg>
