<svg width="96" height="96" viewBox="0 0 96 96" fill="none" xmlns="http://www.w3.org/2000/svg">
<path fill-rule="evenodd" clip-rule="evenodd" d="M21.6647 30.1501C12.8269 31.295 6 38.8503 6 48C6 57.9411 14.0589 66 24 66H39.0004C40.6572 66 42.0004 64.6569 42.0004 63C42.0004 61.3431 40.6572 60 39.0004 60H24C17.3726 60 12 54.6274 12 48C12 41.3726 17.3726 36 24 36H27.5146L21.6647 30.1501ZM36.5146 45H33.0004C31.3435 45 30.0004 46.3431 30.0004 48C30.0004 49.6569 31.3435 51 33.0004 51H42.5146L36.5146 45ZM54.038 62.5234C54.0132 62.6786 54.0004 62.8378 54.0004 63C54.0004 64.6569 55.3435 66 57.0004 66H57.5146L54.038 62.5234ZM68.9327 73.1754L22.2212 26.4639C21.0709 25.2908 21.0779 23.4072 22.2424 22.2427C23.414 21.0711 25.3135 21.0711 26.4851 22.2427L34.2424 30H34.2426L40.0528 35.8102C40.0527 35.8102 40.0527 35.8103 40.0526 35.8103L49.2424 45H49.2426L55.2426 51H55.2424L64.2424 60H64.2426L70.2426 66H70.2424L73.1541 68.9117C74.3257 70.0833 74.3257 71.9828 73.1541 73.1544C71.9896 74.3189 70.1059 74.3259 68.9327 73.1754ZM74.3352 65.85C83.1733 64.7052 90.0004 57.1499 90.0004 48C90.0004 38.0589 81.9415 30 72.0004 30H57.0004C55.3435 30 54.0004 31.3431 54.0004 33C54.0004 34.6569 55.3435 36 57.0004 36H72.0004C78.6278 36 84.0004 41.3726 84.0004 48C84.0004 54.6274 78.6278 60 72.0004 60H68.4852L74.3352 65.85ZM59.4852 51H63.0004C64.6572 51 66.0004 49.6569 66.0004 48C66.0004 46.3431 64.6572 45 63.0004 45H53.4852L59.4852 51ZM41.9626 33.4774C41.9874 33.3219 42.0004 33.1625 42.0004 33C42.0004 31.3431 40.6572 30 39.0004 30H38.4852L41.9626 33.4774Z" fill="url(#paint0_linear_1259_1091)"/>
<defs>
<linearGradient id="paint0_linear_1259_1091" x1="48.0002" y1="33" x2="48.0002" y2="63" gradientUnits="userSpaceOnUse">
<stop stop-color="#654AEC"/>
<stop offset="1" stop-color="#148BFA"/>
</linearGradient>
</defs>
</svg>
