<svg width="64" height="64" viewBox="0 0 64 64" fill="none" xmlns="http://www.w3.org/2000/svg">
<rect width="64" height="64" rx="32" fill="#F8F5FF"/>
<path fill-rule="evenodd" clip-rule="evenodd" d="M26 22H29C29.6295 22 30.2223 22.2964 30.6 22.8L32.4 25.2C32.7777 25.7036 33.3705 26 34 26H38C40.2091 26 42 27.7909 42 30V38C42 40.2091 40.2091 42 38 42H26C23.7909 42 22 40.2091 22 38V26C22 23.7909 23.7909 22 26 22ZM29 36C28.4477 36 28 36.4477 28 37C28 37.5523 28.4477 38 29 38H35C35.5523 38 36 37.5523 36 37C36 36.4477 35.5523 36 35 36H29Z" fill="#1D2129"/>
</svg>
