<svg width="128" height="128" viewBox="0 0 128 128" fill="none" xmlns="http://www.w3.org/2000/svg">
<rect width="128" height="128" rx="64" fill="#F8F5FF"/>
<path d="M64.2791 60C64.0839 59.9689 63.8851 59.9689 63.6899 60C61.6206 59.9251 59.6614 59.0487 58.2264 57.5558C56.7914 56.063 55.9931 54.0707 56 52C56 47.5659 59.5659 44 64 44C66.1217 44 68.1566 44.8429 69.6569 46.3431C71.1571 47.8434 72 49.8783 72 52C71.969 56.341 68.5581 59.8759 64.2791 60Z" fill="#1D2129" stroke="#1D2129" stroke-width="4" stroke-linecap="round" stroke-linejoin="round"/>
<path d="M52.2646 81.4393C46.5784 78.4391 46.5784 73.5239 52.2646 70.5237C58.7171 67.1405 69.3232 67.1405 75.7353 70.5237C81.4215 73.5239 81.4215 78.4391 75.7353 81.4393C69.2829 84.8545 58.7171 84.8545 52.2646 81.4393Z" fill="#1D2129" stroke="#1D2129" stroke-width="4" stroke-linecap="round" stroke-linejoin="round"/>
</svg>
