<svg width="64" height="64" viewBox="0 0 64 64" fill="none" xmlns="http://www.w3.org/2000/svg">
<rect width="64" height="64" rx="32" fill="#F8F5FF"/>
<circle cx="32" cy="32" r="11" fill="#1D2129"/>
<path fill-rule="evenodd" clip-rule="evenodd" d="M32 37C32.2086 37 32.4077 36.9132 32.5496 36.7603L35.7996 33.2603C36.0814 32.9568 36.0639 32.4823 35.7603 32.2004C35.4568 31.9186 34.9823 31.9361 34.7004 32.2397L32.75 34.3401V28.75C32.75 28.3358 32.4142 28 32 28C31.5858 28 31.25 28.3358 31.25 28.75V34.3401L29.2996 32.2397C29.0177 31.9361 28.5432 31.9186 28.2397 32.2004C27.9361 32.4823 27.9186 32.9568 28.2004 33.2603L31.4504 36.7603C31.5923 36.9132 31.7914 37 32 37Z" fill="white"/>
</svg>
