<svg width="16" height="16" viewBox="0 0 16 16" fill="none" xmlns="http://www.w3.org/2000/svg">
<path d="M8 5.5V8.5L9.5 10" stroke="#1D2129" stroke-width="1.2" stroke-linecap="round" stroke-linejoin="round"/>
<path d="M3.5 2.5V5.5H6" stroke="#1D2129" stroke-linecap="round" stroke-linejoin="round"/>
<mask id="path-3-inside-1_16162_169" fill="white">
<path d="M3.01463 4.66143C3.82459 3.45194 5.04663 2.57814 6.45307 2.20284C7.85951 1.82755 9.35442 1.97634 10.6593 2.62151C11.9642 3.26667 12.99 4.36421 13.5456 5.70963C14.1013 7.05505 14.1489 8.55659 13.6796 9.9345C13.2103 11.3124 12.256 12.4727 10.9946 13.1992C9.73325 13.9258 8.25077 14.169 6.82338 13.8835C5.396 13.598 4.12106 12.8034 3.23611 11.6477C2.35116 10.4919 1.91655 9.05383 2.01325 7.6014L3.3406 7.68977C3.26534 8.82018 3.60359 9.9394 4.29233 10.8389C4.98108 11.7384 5.97334 12.3569 7.08425 12.579C8.19517 12.8012 9.34896 12.6119 10.3307 12.0465C11.3124 11.4811 12.0551 10.578 12.4203 9.5056C12.7856 8.43319 12.7486 7.26456 12.3161 6.21744C11.8836 5.17032 11.0852 4.31612 10.0697 3.814C9.05413 3.31188 7.89066 3.19607 6.79605 3.48816C5.70144 3.78025 4.75034 4.46031 4.11996 5.40164L3.01463 4.66143Z"/>
</mask>
<path d="M3.01463 4.66143C3.82459 3.45194 5.04663 2.57814 6.45307 2.20284C7.85951 1.82755 9.35442 1.97634 10.6593 2.62151C11.9642 3.26667 12.99 4.36421 13.5456 5.70963C14.1013 7.05505 14.1489 8.55659 13.6796 9.9345C13.2103 11.3124 12.256 12.4727 10.9946 13.1992C9.73325 13.9258 8.25077 14.169 6.82338 13.8835C5.396 13.598 4.12106 12.8034 3.23611 11.6477C2.35116 10.4919 1.91655 9.05383 2.01325 7.6014L3.3406 7.68977C3.26534 8.82018 3.60359 9.9394 4.29233 10.8389C4.98108 11.7384 5.97334 12.3569 7.08425 12.579C8.19517 12.8012 9.34896 12.6119 10.3307 12.0465C11.3124 11.4811 12.0551 10.578 12.4203 9.5056C12.7856 8.43319 12.7486 7.26456 12.3161 6.21744C11.8836 5.17032 11.0852 4.31612 10.0697 3.814C9.05413 3.31188 7.89066 3.19607 6.79605 3.48816C5.70144 3.78025 4.75034 4.46031 4.11996 5.40164L3.01463 4.66143Z" stroke="#1D2129" stroke-width="2" stroke-linejoin="round" mask="url(#path-3-inside-1_16162_169)"/>
</svg>
