<svg width="14" height="14" viewBox="0 0 14 14" fill="none" xmlns="http://www.w3.org/2000/svg">
<path d="M11.8112 2.62117C11.8073 2.61373 11.8009 2.60789 11.7932 2.60471C10.8965 2.19329 9.95018 1.89991 8.97799 1.73192C8.96916 1.73028 8.96003 1.73146 8.95191 1.73531C8.94379 1.73915 8.93709 1.74545 8.93276 1.75333C8.8039 1.9872 8.68693 2.22742 8.58229 2.47308C7.53433 2.314 6.46835 2.314 5.42039 2.47308C5.31505 2.2268 5.19621 1.98651 5.06439 1.75333C5.05987 1.74563 5.05313 1.73947 5.04506 1.73565C5.03699 1.73183 5.02796 1.73053 5.01913 1.73192C4.04684 1.89956 3.10049 2.19296 2.20389 2.60473C2.19622 2.60799 2.18974 2.61354 2.18536 2.62063C0.392337 5.29828 -0.0988394 7.91008 0.142115 10.4895C0.142793 10.4959 0.144735 10.502 0.147826 10.5075C0.150917 10.5131 0.155094 10.518 0.160109 10.5219C1.20417 11.2949 2.37196 11.885 3.61365 12.2669C3.6224 12.2695 3.63174 12.2694 3.64041 12.2666C3.64909 12.2637 3.65668 12.2583 3.66218 12.251C3.92887 11.8882 4.16517 11.5039 4.36869 11.1022C4.37149 11.0967 4.37309 11.0906 4.37338 11.0845C4.37367 11.0783 4.37265 11.0721 4.37039 11.0664C4.36812 11.0606 4.36466 11.0554 4.36024 11.0511C4.35582 11.0468 4.35053 11.0434 4.34473 11.0413C3.97209 10.8987 3.61133 10.7269 3.26584 10.5273C3.25957 10.5236 3.25429 10.5184 3.25049 10.5122C3.24669 10.506 3.24448 10.499 3.24405 10.4917C3.24362 10.4844 3.24499 10.4772 3.24803 10.4705C3.25107 10.4639 3.25569 10.4582 3.26149 10.4538C3.33419 10.3995 3.40563 10.3435 3.47575 10.2859C3.4819 10.2808 3.48934 10.2776 3.49724 10.2765C3.50513 10.2755 3.51317 10.2766 3.52044 10.2799C5.78389 11.3129 8.23438 11.3129 10.471 10.2799C10.4783 10.2764 10.4865 10.2751 10.4945 10.2761C10.5025 10.277 10.51 10.2802 10.5163 10.2854C10.5865 10.3433 10.6581 10.3994 10.7311 10.4538C10.7369 10.4581 10.7416 10.4639 10.7447 10.4704C10.7478 10.477 10.7492 10.4843 10.7488 10.4915C10.7484 10.4988 10.7463 10.5059 10.7425 10.5121C10.7388 10.5183 10.7335 10.5236 10.7273 10.5273C10.3826 10.7285 10.0215 10.9003 9.64789 11.0408C9.64208 11.043 9.63681 11.0464 9.63242 11.0508C9.62803 11.0552 9.62461 11.0604 9.62239 11.0662C9.62016 11.072 9.61919 11.0782 9.61953 11.0844C9.61987 11.0906 9.62152 11.0967 9.62436 11.1022C9.83129 11.5017 10.0673 11.8854 10.3303 12.2504C10.3357 12.2579 10.3432 12.2635 10.3519 12.2664C10.3607 12.2694 10.3701 12.2695 10.3789 12.2669C11.6228 11.8862 12.7926 11.2961 13.838 10.5219C13.8431 10.5182 13.8473 10.5134 13.8504 10.5079C13.8535 10.5024 13.8554 10.4964 13.856 10.4901C14.1444 7.50796 13.373 4.91756 11.8112 2.62117ZM4.70672 8.91892C4.02526 8.91892 3.46375 8.29355 3.46375 7.52553C3.46375 6.7575 4.01437 6.13209 4.70672 6.13209C5.40449 6.13209 5.96056 6.76294 5.94967 7.52548C5.94967 8.29355 5.39903 8.91892 4.70672 8.91892ZM9.30235 8.91892C8.62091 8.91892 8.05941 8.29355 8.05941 7.52553C8.05941 6.7575 8.61002 6.13209 9.30235 6.13209C10.0002 6.13209 10.5562 6.76294 10.5453 7.52548C10.5453 8.29355 10.0002 8.91892 9.30235 8.91892Z" fill="#1D2129"/>
</svg>
