<svg width="12" height="12" viewBox="0 0 12 12" fill="none" xmlns="http://www.w3.org/2000/svg">
<path fill-rule="evenodd" clip-rule="evenodd" d="M6.6002 4.8C6.26882 4.8 6.0002 4.53137 6.0002 4.2L6.0002 1.2L2.4002 1.2L2.4002 10.8L9.6002 10.8L9.6002 4.8L6.6002 4.8ZM10.8002 4.2V4.8L10.8002 11.4C10.8002 11.7314 10.5316 12 10.2002 12L1.8002 12C1.46882 12 1.2002 11.7314 1.2002 11.4L1.2002 0.6C1.2002 0.268629 1.46882 0 1.8002 0L6.0002 0L6.6002 0L7.2002 0.6L10.2002 3.6L10.8002 4.2ZM8.50314 3.6L7.2002 2.29706L7.2002 3.6L8.50314 3.6ZM3.6002 7.2L3.6002 6L8.4002 6V7.2L3.6002 7.2ZM3.6002 9.6L7.2002 9.6V8.4L3.6002 8.4V9.6Z" fill="#1D2129"/>
</svg>
