<svg width="14" height="14" viewBox="0 0 14 14" fill="none" xmlns="http://www.w3.org/2000/svg">
<g clip-path="url(#clip0_1776_1113)">
<path d="M7 8.3125C7.3481 8.3125 7.68194 8.17422 7.92808 7.92808C8.17422 7.68194 8.3125 7.3481 8.3125 7C8.3125 6.6519 8.17422 6.31806 7.92808 6.07192C7.68194 5.82578 7.3481 5.6875 7 5.6875C6.6519 5.6875 6.31806 5.82578 6.07192 6.07192C5.82578 6.31806 5.6875 6.6519 5.6875 7C5.6875 7.3481 5.82578 7.68194 6.07192 7.92808C6.31806 8.17422 6.6519 8.3125 7 8.3125Z" fill="black"/>
<path fill-rule="evenodd" clip-rule="evenodd" d="M7 0C5.14348 0 3.36301 0.737498 2.05025 2.05025C0.737498 3.36301 0 5.14348 0 7C0 8.85652 0.737498 10.637 2.05025 11.9497C3.36301 13.2625 5.14348 14 7 14C8.85652 14 10.637 13.2625 11.9497 11.9497C13.2625 10.637 14 8.85652 14 7C14 5.14348 13.2625 3.36301 11.9497 2.05025C10.637 0.737498 8.85652 0 7 0V0ZM1.3125 7C1.3125 5.49158 1.91172 4.04494 2.97833 2.97833C4.04494 1.91172 5.49158 1.3125 7 1.3125C8.50842 1.3125 9.95506 1.91172 11.0217 2.97833C12.0883 4.04494 12.6875 5.49158 12.6875 7C12.6875 8.50842 12.0883 9.95506 11.0217 11.0217C9.95506 12.0883 8.50842 12.6875 7 12.6875C5.49158 12.6875 4.04494 12.0883 2.97833 11.0217C1.91172 9.95506 1.3125 8.50842 1.3125 7Z" fill="black"/>
</g>
<defs>
<clipPath id="clip0_1776_1113">
<rect width="14" height="14" fill="white"/>
</clipPath>
</defs>
</svg>
