<svg width="40" height="40" viewBox="0 0 40 40" fill="none" xmlns="http://www.w3.org/2000/svg">
<path fill-rule="evenodd" clip-rule="evenodd" d="M2.5 9.375C2.5 8.33947 3.33947 7.5 4.375 7.5H35.625C36.6605 7.5 37.5 8.33947 37.5 9.375C37.5 10.4105 36.6605 11.25 35.625 11.25H4.375C3.33947 11.25 2.5 10.4105 2.5 9.375ZM2.5 20C2.5 18.9645 3.33947 18.125 4.375 18.125H35.625C36.6605 18.125 37.5 18.9645 37.5 20C37.5 21.0355 36.6605 21.875 35.625 21.875H4.375C3.33947 21.875 2.5 21.0355 2.5 20ZM4.375 28.75C3.33947 28.75 2.5 29.5895 2.5 30.625C2.5 31.6605 3.33947 32.5 4.375 32.5H35.625C36.6605 32.5 37.5 31.6605 37.5 30.625C37.5 29.5895 36.6605 28.75 35.625 28.75H4.375Z" fill="currentColor"/>
</svg>
