<svg width="14" height="14" viewBox="0 0 14 14" fill="none" xmlns="http://www.w3.org/2000/svg">
<path d="M6.99999 3.20216V11.9522M4.52082 4.95216H3.20832M4.95832 6.70216H3.20832M12.8333 9.76466V2.72383C12.8333 2.02383 12.2617 1.50466 11.5675 1.563H11.5325C10.3075 1.668 8.44666 2.29216 7.40832 2.9455L7.30916 3.00966C7.13999 3.11466 6.85999 3.11466 6.69082 3.00966L6.54499 2.92216C5.50666 2.27466 3.65166 1.65633 2.42666 1.55716C1.73249 1.49883 1.16666 2.02383 1.16666 2.718V9.76466C1.16666 10.3247 1.62166 10.8497 2.18166 10.9197L2.35082 10.943C3.61666 11.1122 5.57082 11.7538 6.69082 12.3663L6.71416 12.378C6.87166 12.4655 7.12249 12.4655 7.27416 12.378C8.39416 11.7597 10.3542 11.1122 11.6258 10.943L11.8183 10.9197C12.3783 10.8497 12.8333 10.3247 12.8333 9.76466Z" stroke="black" stroke-width="0.875" stroke-linecap="round" stroke-linejoin="round"/>
</svg>
