<svg width="16" height="16" viewBox="0 0 16 16" fill="none" xmlns="http://www.w3.org/2000/svg">
<path d="M7.99992 10.5L2.66679 10.4997C2.48998 10.4997 2.32041 10.4339 2.19538 10.3167C2.07036 10.1995 2.00012 10.0405 2.00012 9.87473V6.50309V3.62787C2.00012 3.46211 2.07036 3.30314 2.19538 3.18593C2.32041 3.06872 2.48998 3.00287 2.66679 3.00287L13.3294 3C13.5063 3 13.6758 3.06585 13.8008 3.18306C13.9259 3.30027 13.9961 3.45924 13.9961 3.625V9.87186C13.9961 10.0376 13.9259 10.1966 13.8008 10.3138C13.6758 10.431 13.5063 10.4969 13.3294 10.4969L7.99992 10.5ZM7.99992 10.5L7.99992 13M7.99992 13H9.99992M7.99992 13H5.99992" stroke="#1D2129" stroke-linecap="round"/>
</svg>
